<svg width="60" height="61" viewBox="0 0 60 61" fill="none" xmlns="http://www.w3.org/2000/svg">
<mask id="mask0_135_1581" style="mask-type:alpha" maskUnits="userSpaceOnUse" x="0" y="0" width="60" height="61">
<rect x="0.34375" y="0.900391" width="59.233" height="59.199" fill="#D9D9D9"/>
</mask>
<g mask="url(#mask0_135_1581)">
<path fill-rule="evenodd" clip-rule="evenodd" d="M29.9588 4.99127C44.0599 4.99127 55.4848 16.4106 55.4848 30.5003C55.4848 44.5873 44.0599 56.0094 29.9588 56.0094C15.8634 56.0094 4.42995 44.5873 4.42995 30.5003C4.42995 16.4106 15.8634 4.99127 29.9588 4.99127ZM29.9588 0.899414C46.3177 0.899414 59.5767 14.1527 59.5767 30.5003C59.5767 46.8423 46.3177 60.0984 29.9588 60.0984C13.5999 60.0984 0.34375 46.8423 0.34375 30.5003C0.34375 14.1527 13.5999 0.899414 29.9588 0.899414Z" fill="#FFBF00"/>
<path d="M29.0092 46.1753C26.1115 46.1753 23.55 45.7776 21.3246 44.9822C19.0992 44.1962 17.2289 43.0361 15.7138 41.502C14.1986 39.968 13.0528 38.0882 12.2763 35.8628C11.4998 33.6375 11.1115 31.0901 11.1115 28.2208C11.1115 25.4462 11.5045 22.9651 12.2905 20.7776C13.0859 18.5901 14.2365 16.734 15.7422 15.2094C17.2573 13.6753 19.0945 12.5058 21.2536 11.7009C23.4221 10.896 25.8748 10.4935 28.6115 10.4935C31.2725 10.4935 33.602 10.9291 35.6001 11.8003C37.6077 12.6621 39.2839 13.8316 40.6286 15.3089C41.9827 16.7767 42.996 18.4291 43.6683 20.2662C44.3501 22.1034 44.6911 23.9973 44.6911 25.9481C44.6911 27.3212 44.6248 28.7132 44.4922 30.1242C44.3596 31.5352 44.0803 32.8325 43.6541 34.0162C43.228 35.1905 42.5698 36.1375 41.6797 36.8572C40.799 37.5769 39.6058 37.9367 38.1001 37.9367C37.4373 37.9367 36.7081 37.8325 35.9126 37.6242C35.1172 37.4159 34.4117 37.0702 33.7962 36.5873C33.1806 36.1043 32.8161 35.4556 32.7024 34.6412H32.532C32.3047 35.1905 31.9543 35.7113 31.4808 36.2037C31.0168 36.6962 30.406 37.0892 29.6484 37.3827C28.9003 37.6763 27.9865 37.8041 26.907 37.7662C25.6759 37.7189 24.5916 37.4443 23.6541 36.9424C22.7166 36.431 21.9306 35.7397 21.2962 34.8685C20.6712 33.9878 20.1977 32.9698 19.8757 31.8145C19.5632 30.6498 19.407 29.395 19.407 28.0503C19.407 26.7719 19.5964 25.6024 19.9751 24.5418C20.3539 23.4812 20.8795 22.5532 21.5518 21.7577C22.2337 20.9623 23.0291 20.3278 23.9382 19.8543C24.8568 19.3714 25.8464 19.0731 26.907 18.9594C27.8539 18.8647 28.7157 18.9073 29.4922 19.0873C30.2687 19.2577 30.9079 19.5181 31.4098 19.8685C31.9117 20.2094 32.2289 20.5882 32.3615 21.0049H32.532V19.414H35.5433V32.2549C35.5433 33.0503 35.7659 33.7511 36.2109 34.3572C36.656 34.9632 37.3047 35.2662 38.157 35.2662C39.1229 35.2662 39.8615 34.9348 40.3729 34.2719C40.8937 33.609 41.2488 32.5863 41.4382 31.2037C41.6371 29.8212 41.7365 28.0503 41.7365 25.8912C41.7365 24.6223 41.5613 23.3723 41.2109 22.1412C40.87 20.9007 40.3492 19.7407 39.6484 18.6611C38.9572 17.5816 38.0812 16.6299 37.0206 15.806C35.96 14.9822 34.7147 14.3382 33.2848 13.8742C31.8643 13.4007 30.2498 13.164 28.4411 13.164C26.2157 13.164 24.2223 13.5096 22.4609 14.2009C20.709 14.8827 19.2176 15.8818 17.9865 17.1981C16.7649 18.5049 15.8321 20.0958 15.1882 21.9708C14.5537 23.8363 14.2365 25.9575 14.2365 28.3344C14.2365 30.7492 14.5537 32.8941 15.1882 34.7691C15.8321 36.6441 16.7791 38.2255 18.0291 39.5134C19.2886 40.8013 20.8464 41.7767 22.7024 42.4395C24.5585 43.1119 26.6986 43.4481 29.1229 43.4481C30.1645 43.4481 31.192 43.3486 32.2053 43.1498C33.2185 42.9509 34.1134 42.7331 34.8899 42.4964C35.6664 42.2596 36.2251 42.0844 36.5661 41.9708L37.3615 44.5844C36.7744 44.8306 36.0073 45.0769 35.0604 45.3231C34.1229 45.5693 33.1191 45.7729 32.049 45.9339C30.9884 46.0948 29.9751 46.1753 29.0092 46.1753ZM27.3615 34.8685C28.6304 34.8685 29.6579 34.6128 30.4439 34.1015C31.2299 33.5901 31.8028 32.8183 32.1626 31.7861C32.5225 30.7539 32.7024 29.4519 32.7024 27.8799C32.7024 26.289 32.5036 25.0484 32.1058 24.1583C31.7081 23.2681 31.121 22.6431 30.3445 22.2833C29.5679 21.9234 28.6115 21.7435 27.4751 21.7435C26.3956 21.7435 25.4723 22.0276 24.7053 22.5958C23.9477 23.1545 23.3653 23.9026 22.9581 24.8401C22.5604 25.7681 22.3615 26.7814 22.3615 27.8799C22.3615 29.092 22.5225 30.2331 22.8445 31.3032C23.1664 32.3638 23.692 33.2255 24.4212 33.8884C25.1503 34.5418 26.1304 34.8685 27.3615 34.8685Z" fill="#FFC600"/>
</g>
</svg>
