<svg xmlns="http://www.w3.org/2000/svg" width="36" height="41" viewBox="0 0 36 41" fill="none"><path d="M24.222 36.8879C24.36 37.7159 24.59 38.3599 24.958 38.8659C25.326 39.3719 25.694 39.6939 26.016 39.8779C26.154 39.9699 26.246 40.0619 26.338 40.1079C26.384 40.1539 26.384 40.1539 26.43 40.1539L26.476 40.1999H17.552L17.598 40.1539C17.644 40.1539 17.644 40.1539 17.69 40.1079C17.828 40.0619 17.966 39.9239 18.15 39.7399C18.288 39.6019 18.472 39.3719 18.61 39.1419C18.748 38.9119 18.886 38.5899 18.932 38.2219C18.978 38.0379 18.978 37.8539 18.978 37.6239C18.978 37.3939 18.978 37.1639 18.932 36.9339L16.632 23.1799L6.28198 36.8879C5.91398 37.3939 5.68398 37.7159 5.63798 37.9459C5.54598 38.1759 5.49998 38.4979 5.45398 38.9119V39.1879C5.45398 39.4179 5.49998 39.6479 5.54598 39.7859C5.63798 39.9239 5.72998 40.0159 5.82198 40.0619L5.95998 40.1999H0.669983L0.715983 40.1539C0.761983 40.1539 0.761983 40.1539 0.807983 40.1079C0.945983 40.0619 1.08398 40.0159 1.31398 39.8779C1.72798 39.6939 2.27998 39.3719 2.96998 38.8659C3.61398 38.3599 4.25798 37.7159 4.90198 36.8879L16.402 21.7079L13.458 3.85985C13.32 3.07785 13.044 2.43385 12.722 1.92785C12.354 1.42185 11.986 1.09985 11.664 0.869853C11.526 0.777854 11.434 0.685853 11.342 0.639853C11.296 0.593854 11.296 0.593854 11.25 0.593854V0.547852H20.128L20.082 0.593854C20.036 0.639853 20.036 0.639853 19.99 0.639853C19.852 0.731852 19.714 0.869853 19.576 1.00785C19.392 1.14585 19.208 1.37585 19.07 1.60585C18.932 1.88185 18.794 2.20385 18.748 2.57185C18.702 2.75585 18.702 2.93985 18.702 3.16985C18.702 3.39985 18.702 3.62985 18.748 3.85985L20.772 15.9579L29.926 3.81385C30.248 3.30785 30.478 2.89385 30.616 2.52585C30.754 2.20385 30.8 1.88185 30.8 1.60585C30.754 1.37585 30.708 1.14585 30.616 1.00785C30.524 0.869853 30.432 0.731852 30.34 0.639853L30.248 0.547852H35.492L35.446 0.593854C35.4 0.593854 35.4 0.593854 35.354 0.639853C35.216 0.685853 35.078 0.731852 34.848 0.823853C34.434 1.05385 33.882 1.37585 33.238 1.88185C32.594 2.38785 31.95 3.03185 31.26 3.85985L21.002 17.4299L24.222 36.8879Z" fill="black"></path></svg>