<svg xmlns="http://www.w3.org/2000/svg" width="155.843" height="192.815" viewBox="0 0 155.843 192.815">
  <g id="Group_206" data-name="Group 206" transform="translate(-114.698 -273.371)">
    <path id="Path_231" data-name="Path 231" d="M227.392,652.55l-7.367-20.123-20.613,5.858,24.455-47.965,27.98,14.266Z" transform="translate(-62.955 -186.363)" fill="#ffbf00"/>
    <path id="Path_232" data-name="Path 232" d="M314.02,652.55l7.367-20.123L342,638.284l-24.455-47.965-27.98,14.266Z" transform="translate(-91.416 -186.363)" fill="#ffbf00"/>
    <path id="Path_157" data-name="Path 157" d="M266.777,443.431h0a10.105,10.105,0,0,0,15.252,6.318c9.105-5.75,19.689,4.834,13.939,13.94a10.1,10.1,0,0,0,6.317,15.252c10.5,2.372,10.5,17.341,0,19.713a10.106,10.106,0,0,0-6.317,15.252c5.75,9.107-4.834,19.69-13.939,13.939a10.106,10.106,0,0,0-15.252,6.318c-2.373,10.505-17.341,10.505-19.713,0a10.106,10.106,0,0,0-15.252-6.318c-9.106,5.751-19.689-4.833-13.939-13.939a10.106,10.106,0,0,0-6.317-15.252c-10.5-2.372-10.5-17.34,0-19.713a10.1,10.1,0,0,0,6.317-15.252c-5.75-9.106,4.833-19.69,13.939-13.94a10.105,10.105,0,0,0,15.252-6.318c2.372-10.5,17.34-10.5,19.713,0" transform="translate(-64.3 -137.504)" fill="#ffc600"/>
    <circle id="Ellipse_2" data-name="Ellipse 2" cx="32.566" cy="32.566" r="32.566" transform="translate(155.851 379.027) rotate(-82.027)" fill="none" stroke="#161615" stroke-miterlimit="10" stroke-width="4.053"/>
    <path id="Path_158" data-name="Path 158" d="M260.94,415.679h0a14.115,14.115,0,0,0,21.3,8.825c12.72-8.032,27.5,6.752,19.471,19.472a14.116,14.116,0,0,0,8.825,21.3h0c14.673,3.314,14.673,24.222,0,27.536h0a14.115,14.115,0,0,0-8.825,21.3c8.032,12.72-6.751,27.5-19.471,19.472a14.115,14.115,0,0,0-21.3,8.825c-3.315,14.673-24.222,14.673-27.537,0a14.115,14.115,0,0,0-21.305-8.825c-12.719,8.032-27.5-6.752-19.471-19.472a14.115,14.115,0,0,0-8.825-21.3c-14.673-3.314-14.673-24.222,0-27.536a14.116,14.116,0,0,0,8.825-21.3c-8.032-12.72,6.752-27.5,19.471-19.472a14.115,14.115,0,0,0,21.305-8.825C236.717,401.005,257.625,401.005,260.94,415.679Z" transform="translate(-54.552 -127.756)" fill="none" stroke="#161615" stroke-miterlimit="10" stroke-width="7.093"/>
    <path id="Path_159" data-name="Path 159" d="M274.531,489.474l2.85,9.679,10.087-.28A2.263,2.263,0,0,1,288.808,503l-8.324,5.7,3.382,9.506a2.262,2.262,0,0,1-3.511,2.551l-8-6.155-7.995,6.155a2.262,2.262,0,0,1-3.511-2.551l3.383-9.506-8.324-5.7a2.263,2.263,0,0,1,1.341-4.128l10.087.28,2.85-9.679A2.263,2.263,0,0,1,274.531,489.474Z" transform="translate(-80.479 -154.015)" fill="none" stroke="#161615" stroke-miterlimit="10" stroke-width="4.053"/>
  </g>
</svg>
