<svg xmlns="http://www.w3.org/2000/svg" width="32" height="32" viewBox="0 0 32 32"><g id="facebook-svgrepo-com" transform="translate(143 -591.4)"><path id="Path_231" data-name="Path 231" d="M-127,145a16,16,0,0,0-16,16,16,16,0,0,0,16,16,16,16,0,0,0,16-16A16,16,0,0,0-127,145Zm9.987,25.981a13.971,13.971,0,0,1-4.488,3.025,13.991,13.991,0,0,1-5.5,1.106,14.149,14.149,0,0,1-5.5-1.106,14.106,14.106,0,0,1-4.488-3.025,13.971,13.971,0,0,1-3.025-4.488A13.989,13.989,0,0,1-141.125,161a14.149,14.149,0,0,1,1.106-5.5,14.107,14.107,0,0,1,3.025-4.488,14.187,14.187,0,0,1,4.494-3.031,14.149,14.149,0,0,1,5.5-1.106,14.149,14.149,0,0,1,5.5,1.106,14.106,14.106,0,0,1,4.488,3.025,13.972,13.972,0,0,1,3.025,4.487,13.991,13.991,0,0,1,1.106,5.5,14.148,14.148,0,0,1-1.106,5.5A14.106,14.106,0,0,1-117.013,170.981Z" transform="translate(0 446.4)" fill="#ffbf00"></path><path id="Path_232" data-name="Path 232" d="M57.207,275.436a5.63,5.63,0,0,1,1.338.2l.415-2.437a10.435,10.435,0,0,0-2.978-.3,2.97,2.97,0,0,0-2.583,1.2,4.27,4.27,0,0,0-.534,2.468v1.6H51.2v2.381h1.665v8.268h3.117v-8.268h2.469l.182-2.381H55.982v-1.859C55.982,275.666,56.56,275.436,57.207,275.436Z" transform="translate(-182.083 326.537)" fill="#ffbf00"></path></g></svg>