<svg xmlns="http://www.w3.org/2000/svg" width="206.886" height="215.627" viewBox="0 0 206.886 215.627">
  <g id="Group_206" data-name="Group 206" transform="translate(-2915.903 -9790.083)">
    <path id="Path_230" data-name="Path 230" d="M294.228,405.372h0a8.372,8.372,0,0,0,12.636,5.235h0c7.544-4.765,16.313,4,11.549,11.549a8.372,8.372,0,0,0,5.234,12.636c8.7,1.966,8.7,14.367,0,16.333a8.372,8.372,0,0,0-5.234,12.636c4.764,7.544-4,16.313-11.549,11.549h0a8.372,8.372,0,0,0-12.636,5.235c-1.966,8.7-14.367,8.7-16.333,0a8.373,8.373,0,0,0-12.637-5.235c-7.544,4.765-16.313-4-11.549-11.549a8.372,8.372,0,0,0-5.234-12.636h0c-8.7-1.966-8.7-14.367,0-16.333h0a8.372,8.372,0,0,0,5.234-12.636c-4.764-7.544,4-16.313,11.549-11.549a8.373,8.373,0,0,0,12.637-5.235c1.966-8.7,14.367-8.7,16.333,0" transform="translate(2749.964 9411.68)" fill="#ffbf00"/>
    <circle id="Ellipse_3" data-name="Ellipse 3" cx="26.981" cy="26.981" r="26.981" transform="translate(3000.773 9840.035) rotate(-22.5)" fill="none" stroke="#000" stroke-miterlimit="10" stroke-width="3.354"/>
    <path id="Path_231" data-name="Path 231" d="M287.346,460.208l8.673,7.709,17.345-17.345" transform="translate(2735.671 9395.393)" fill="none" stroke="#000" stroke-miterlimit="10" stroke-width="7.547"/>
    <path id="Path_232" data-name="Path 232" d="M186.123,604.388c15.257-3.52,28.7-17.7,44.192-14.626,8.323,1.649,16.7,3.285,25.192,5.3,4.741,1.123,20.394,2.9,13.866,10.575-4.85,5.7-18.034-1.353-24.633-.514-1.79,3.931,3.713,12.691,7.241,14.984,5.692,3.7,16.368,3.613,23.088,2.2,7.491-1.581,13.146-5.693,20.132-8.6,6.776-2.823,14.083-4.3,21.029-6.8,5.6-2.012,22.162-13.672,27.759-9.381,9.822,7.529,5.211,22.282-8.795,22.594-11.124.247-19.83,8.059-29.877,13.071-11.433,5.7-24.388,13.6-36.9,16.8-10.673,2.737-28.491-3.161-38.83-6.24-7.663-2.283-14.85-5.079-22.7-7-4.921-1.2-15.483-.582-19.53-4.154-4.009-3.538-5.612-26.543-1.235-28.2" transform="translate(2768.364 9351.705)" fill="#ffbf00"/>
    <path id="Path_233" data-name="Path 233" d="M137.026,593.513c5.8,4.712,19.425-5.883,27.644-2.436s4.31,20.615,3.962,27.5c-.46,9.116,3.61,21.164-8.178,22.809-9.527,1.329-23,.565-25.275-9.937-2.394-11.066.876-25.766,1.847-37.936" transform="translate(2783.851 9351.377)" fill="#ffbf00"/>
    <path id="Path_234" data-name="Path 234" d="M243.344,600.278l21.59,3.246a6.1,6.1,0,0,0,4.838-1.187,16.874,16.874,0,0,0,5.84-18.046l-1.146-3.932L230.2,569.023a20.984,20.984,0,0,0-13.23.938l-29.642,12.266" transform="translate(2767.162 9358.305)" fill="none" stroke="#161615" stroke-miterlimit="10" stroke-width="5.87"/>
    <path id="Path_235" data-name="Path 235" d="M273.283,599.422l66.975-17.184a27.066,27.066,0,0,1,10.271,27.917l-.241,1.034a.626.626,0,0,1-.355.429L269.01,647.649a13.541,13.541,0,0,1-8.414.856l-77.813-17.1" transform="translate(2768.592 9353.938)" fill="none" stroke="#161615" stroke-miterlimit="10" stroke-width="5.87"/>
    <path id="Rectangle_86" data-name="Rectangle 86" d="M7.691,0H25.874a7.692,7.692,0,0,1,7.692,7.692V58.908A7.692,7.692,0,0,1,25.874,66.6H7.691A7.691,7.691,0,0,1,0,58.909V7.691A7.691,7.691,0,0,1,7.691,0Z" transform="translate(2919.676 9924.973)" fill="none" stroke="#161615" stroke-miterlimit="10" stroke-width="7.547"/>
    <path id="Path_236" data-name="Path 236" d="M161.776,586.238a3.123,3.123,0,1,1-3.123-3.123,3.123,3.123,0,0,1,3.123,3.123" transform="translate(2777.173 9353.662)" fill="#161615"/>
    <path id="Path_237" data-name="Path 237" d="M289.424,382.411h0a11.7,11.7,0,0,0,17.652,7.311c10.538-6.654,22.787,5.594,16.133,16.133h0a11.7,11.7,0,0,0,7.312,17.652c12.157,2.746,12.157,20.068,0,22.814a11.7,11.7,0,0,0-7.312,17.652h0c6.654,10.538-5.594,22.787-16.133,16.133a11.7,11.7,0,0,0-17.652,7.311c-2.746,12.157-20.068,12.157-22.815,0a11.694,11.694,0,0,0-17.651-7.311c-10.538,6.655-22.787-5.594-16.133-16.133a11.7,11.7,0,0,0-7.311-17.652c-12.157-2.746-12.157-20.068,0-22.814a11.7,11.7,0,0,0,7.311-17.652c-6.655-10.538,5.594-22.787,16.133-16.133a11.694,11.694,0,0,0,17.651-7.311C269.355,370.254,286.677,370.254,289.424,382.411Z" transform="translate(2758.009 9419.725)" fill="none" stroke="#161615" stroke-miterlimit="10" stroke-width="5.87"/>
  </g>
</svg>
