<svg width="146" height="312" viewBox="0 0 146 312" fill="none" xmlns="http://www.w3.org/2000/svg">
<path d="M61.1854 165.675V164.397L65.9865 159.141C66.55 158.526 67.014 157.991 67.3786 157.536C67.7431 157.077 68.013 156.646 68.1882 156.243C68.3681 155.836 68.4581 155.41 68.4581 154.965C68.4581 154.454 68.335 154.011 68.0888 153.637C67.8473 153.263 67.5159 152.974 67.0945 152.77C66.6731 152.567 66.1996 152.465 65.674 152.465C65.1153 152.465 64.6276 152.581 64.2109 152.813C63.799 153.04 63.4794 153.36 63.2521 153.772C63.0296 154.184 62.9183 154.667 62.9183 155.221H61.2422C61.2422 154.368 61.4387 153.62 61.8317 152.976C62.2247 152.332 62.7597 151.831 63.4368 151.471C64.1186 151.111 64.8833 150.931 65.7308 150.931C66.5831 150.931 67.3383 151.111 67.9964 151.471C68.6546 151.831 69.1707 152.316 69.5447 152.927C69.9188 153.538 70.1058 154.217 70.1058 154.965C70.1058 155.5 70.0088 156.023 69.8146 156.535C69.6252 157.041 69.2938 157.607 68.8203 158.232C68.3516 158.852 67.7005 159.61 66.8672 160.505L63.6001 163.999V164.113H70.3615V165.675H61.1854Z" fill="#FFBF00"/>
<path d="M78.75 166.871C77.6799 166.871 76.7685 166.58 76.0156 165.997C75.2628 165.41 74.6875 164.56 74.2898 163.447C73.892 162.33 73.6932 160.981 73.6932 159.399C73.6932 157.827 73.892 156.485 74.2898 155.372C74.6922 154.255 75.2699 153.402 76.0227 152.815C76.7803 152.223 77.6894 151.928 78.75 151.928C79.8106 151.928 80.7173 152.223 81.4702 152.815C82.2277 153.402 82.8054 154.255 83.2031 155.372C83.6056 156.485 83.8068 157.827 83.8068 159.399C83.8068 160.981 83.608 162.33 83.2102 163.447C82.8125 164.56 82.2372 165.41 81.4844 165.997C80.7315 166.58 79.8201 166.871 78.75 166.871ZM78.75 165.308C79.8106 165.308 80.6345 164.797 81.2216 163.774C81.8087 162.751 82.1023 161.293 82.1023 159.399C82.1023 158.14 81.9673 157.067 81.6974 156.182C81.4323 155.296 81.0488 154.622 80.5469 154.158C80.0497 153.694 79.4508 153.462 78.75 153.462C77.6989 153.462 76.8774 153.98 76.2855 155.017C75.6937 156.049 75.3977 157.51 75.3977 159.399C75.3977 160.659 75.5303 161.729 75.7955 162.609C76.0606 163.49 76.4418 164.16 76.9389 164.619C77.4408 165.079 78.0445 165.308 78.75 165.308Z" fill="#FFBF00"/>
<path d="M66.25 187.081C65.1799 187.081 64.2685 186.79 63.5156 186.208C62.7628 185.62 62.1875 184.771 61.7898 183.658C61.392 182.54 61.1932 181.191 61.1932 179.61C61.1932 178.038 61.392 176.695 61.7898 175.583C62.1922 174.465 62.7699 173.613 63.5227 173.026C64.2803 172.434 65.1894 172.138 66.25 172.138C67.3106 172.138 68.2173 172.434 68.9702 173.026C69.7277 173.613 70.3054 174.465 70.7031 175.583C71.1056 176.695 71.3068 178.038 71.3068 179.61C71.3068 181.191 71.108 182.54 70.7102 183.658C70.3125 184.771 69.7372 185.62 68.9844 186.208C68.2315 186.79 67.3201 187.081 66.25 187.081ZM66.25 185.519C67.3106 185.519 68.1345 185.007 68.7216 183.985C69.3087 182.962 69.6023 181.504 69.6023 179.61C69.6023 178.35 69.4673 177.278 69.1974 176.392C68.9323 175.507 68.5488 174.832 68.0469 174.368C67.5497 173.904 66.9508 173.672 66.25 173.672C65.1989 173.672 64.3774 174.191 63.7855 175.227C63.1937 176.26 62.8977 177.72 62.8977 179.61C62.8977 180.869 63.0303 181.939 63.2955 182.82C63.5606 183.701 63.9418 184.37 64.4389 184.83C64.9408 185.289 65.5445 185.519 66.25 185.519ZM80.5511 187.081C79.7178 187.081 78.9673 186.915 78.2997 186.584C77.6321 186.253 77.0971 185.798 76.6946 185.22C76.2921 184.643 76.072 183.985 76.0341 183.246H77.7386C77.8049 183.904 78.1032 184.449 78.6335 184.879C79.1686 185.306 79.8078 185.519 80.5511 185.519C81.1477 185.519 81.678 185.379 82.142 185.1C82.6108 184.82 82.9777 184.437 83.2429 183.949C83.5128 183.457 83.6477 182.9 83.6477 182.28C83.6477 181.646 83.508 181.08 83.2287 180.583C82.9541 180.081 82.5753 179.685 82.0923 179.397C81.6094 179.108 81.0578 178.961 80.4375 178.956C79.9924 178.951 79.5355 179.02 79.0668 179.162C78.598 179.299 78.2121 179.477 77.9091 179.695L76.2614 179.496L77.142 172.337H84.6989V173.899H78.6193L78.108 178.189H78.1932C78.4915 177.952 78.8655 177.756 79.3153 177.6C79.7652 177.443 80.2339 177.365 80.7216 177.365C81.6117 177.365 82.4048 177.578 83.1009 178.004C83.8016 178.426 84.3509 179.004 84.7486 179.737C85.151 180.471 85.3523 181.309 85.3523 182.252C85.3523 183.18 85.1439 184.008 84.7273 184.737C84.3153 185.462 83.7472 186.035 83.0227 186.456C82.2983 186.873 81.4744 187.081 80.5511 187.081Z" fill="#FFBF00"/>
<path d="M124.707 58.8181C125.627 60.1284 126.172 60.7943 126.598 61.5296C131.057 69.2267 135.455 76.96 139.975 84.6207C140.932 86.242 141.087 87.5882 140.209 89.2822C138.96 91.6935 137.956 94.2319 137.307 97.154C139.622 95.5641 141.937 93.9738 144.732 92.0536C144.89 93.5259 145.037 94.2709 145.039 95.0164C145.054 104.188 145.012 113.36 145.082 122.531C145.094 124.149 144.567 125.129 143.215 126.01C140.797 127.586 138.522 129.379 136.359 131.525C139.268 131.314 142.178 131.104 145.696 130.849C145.027 132.27 144.694 133.135 144.236 133.928C139.742 141.708 135.174 149.446 130.762 157.272C129.894 158.812 128.838 159.399 127.195 159.508C124.465 159.69 121.743 159.999 118.769 160.859C121.05 161.967 123.331 163.076 126.097 164.42C123.381 167.38 120.844 170.144 118.001 173.242C110.677 151.132 96.3667 137.33 72.8492 137.335C49.3991 137.339 35.1038 151.054 27.735 173.187C24.9518 170.212 22.3947 167.479 19.5517 164.44C22.3006 163.121 24.6573 161.99 27.0135 160.86L26.9943 160.328C24.2432 160.047 21.4974 159.647 18.7394 159.528C16.8273 159.446 15.7104 158.684 14.7704 157.017C10.3113 149.117 5.72505 141.288 1.19653 133.427C0.853439 132.831 0.606552 132.18 0 130.879C3.3849 131.106 6.29793 131.301 9.21095 131.496C9.32478 131.364 9.43861 131.231 9.55244 131.099C7.77129 129.816 6.0831 128.367 4.18597 127.288C1.41135 125.71 0.452103 123.612 0.553101 120.367C0.808548 112.182 0.640747 103.985 0.642349 95.7929V92.043C3.62538 93.9802 6.00079 95.5219 8.37569 97.0642C8.53014 96.9755 8.68405 96.8873 8.83849 96.7986C7.65639 94.102 6.37541 91.4428 5.3483 88.6885C5.0004 87.7549 4.90048 86.3601 5.35472 85.5521C9.97462 77.3346 14.7276 69.1914 19.4635 61.0396C19.7953 60.4689 20.2913 59.9927 21.0881 59.0046C22.5277 61.9844 23.7617 64.5373 24.9951 67.0901C25.1955 67.0591 25.3959 67.0276 25.5963 66.9966C25.8742 64.1306 26.0511 61.2485 26.485 58.4061C26.6394 57.3933 27.1642 56.0477 27.9514 55.5817C36.4436 50.5503 45.0213 45.6638 53.5814 40.7473C53.801 40.6211 54.0869 40.6104 54.9564 40.3903C54.7581 43.5523 54.5716 46.5226 54.3343 50.2986C56.4917 47.3391 58.0741 44.8931 59.9605 42.7107C60.7643 41.7808 62.189 40.8878 63.3556 40.8557C69.7609 40.6794 76.1759 40.704 82.5828 40.8493C83.6169 40.8728 84.9161 41.6109 85.5974 42.4301C87.5074 44.7259 89.1576 47.2376 91.3401 49.4901C91.1434 46.5396 90.9468 43.5898 90.7031 39.936C95.9306 42.9159 100.397 45.4442 104.846 48.0023C108.932 50.3515 112.965 52.7953 117.094 55.0661C118.606 55.8981 119.239 56.945 119.332 58.6417C119.484 61.4292 119.863 64.2043 120.738 67.0452C121.95 64.5335 123.162 62.0213 124.707 58.8181Z" fill="black"/>
<path d="M85.4645 100.111C85.099 99.8965 84.7339 99.6817 84.3684 99.4674C84.7703 96.5474 84.7767 93.5013 85.6617 90.7358C87.1719 86.0192 89.4164 84.8237 94.2447 85.1385C98.4173 85.4104 102.592 85.667 106.77 85.8487C110.103 85.994 110.727 84.9819 109.368 81.8476C108.061 78.8293 106.679 75.8404 105.468 72.7847C104.789 71.0714 103.784 70.087 101.933 69.5986C97.0375 68.3059 92.1713 66.8828 87.3531 65.3276C85.1369 64.6126 83.9832 65.1294 82.9229 67.2338C80.4443 72.1525 77.7841 76.9867 75.0126 81.7477C73.395 84.5276 72.3278 84.5265 70.7107 81.7407C67.9008 76.8996 65.2336 71.9697 62.6701 66.9934C61.7098 65.1294 60.6463 64.6276 58.6407 65.2549C53.5543 66.8469 48.3839 68.1749 43.3167 69.8219C42.2281 70.1757 41.093 71.2605 40.5656 72.3048C39.0062 75.3947 37.7285 78.6279 36.3619 81.8145C34.9987 84.9926 35.695 86.0175 39.2317 85.845C43.8522 85.6189 48.4656 85.1315 53.0856 85.092C54.5798 85.0791 56.4266 85.7472 57.5206 86.7497C61.2982 90.211 60.9386 94.9303 60.6014 99.8303C58.9485 98.6867 57.8465 97.0786 56.4459 95.7971C55.6261 95.0468 54.265 94.312 53.2582 94.4403C48.4721 95.049 44.37 93.9556 40.6708 90.7689C38.8181 89.1727 37.5719 89.7065 36.6308 92.0563C35.6731 94.4477 34.9431 96.9354 33.8946 99.283C33.0412 101.194 33.4965 102.407 35.1318 103.58C39.3236 106.587 43.3888 109.773 47.609 112.739C49.3282 113.948 49.8669 115.192 49.2469 117.234C47.8794 121.739 46.7016 126.3 45.4367 130.836C44.3513 134.726 45.8423 136.887 49.9871 137.126C56.8723 137.522 63.1916 135.547 69.0412 132.071C71.8255 130.417 72.152 126.26 69.7766 124.065C66.7706 121.289 63.6042 118.685 60.6345 115.871C60.0039 115.273 59.555 114.017 59.725 113.213C59.8292 112.719 61.2662 112.224 62.11 112.214C69.2138 112.136 76.3187 112.128 83.4225 112.22C84.3396 112.232 85.2475 112.928 86.1597 113.307C85.7782 114.209 85.6253 115.351 84.9745 115.97C82.2052 118.608 79.2569 121.056 76.4331 123.638C73.3816 126.429 73.7964 130.565 77.488 132.615C79.8014 133.9 82.281 135.212 84.836 135.66C88.8147 136.358 92.9387 136.701 96.967 136.502C100.559 136.324 101.377 134.645 100.462 131.333C99.2558 126.966 98.2415 122.532 96.7602 118.26C95.8073 115.51 96.2599 113.896 98.7241 112.26C102.869 109.508 106.742 106.348 110.768 103.413C112.2 102.369 112.623 101.245 111.893 99.538C110.881 97.1721 110.11 94.7043 109.172 92.3053C108.133 89.6472 106.981 89.1925 104.814 90.9469C101.303 93.7883 97.5196 95.049 92.9563 94.4873C91.6668 94.3281 90.0154 95.3172 88.8734 96.2161C87.5406 97.2646 86.584 98.7919 85.4645 100.111Z" fill="#FFBF00"/>
<path d="M97.7259 59.6352L97.8675 59.0885C93.3086 57.131 88.8057 55.0185 84.1473 53.3362C83.1036 52.9589 81.191 53.7349 80.2483 54.6011C78.4334 56.269 77.0338 58.3869 75.4472 60.3059C73.1819 63.0458 72.5539 63.0549 70.356 60.3834C68.6603 58.3227 66.9513 56.2722 65.3043 54.1731C63.9843 52.4908 62.4618 52.2177 60.6154 53.2224C58.6632 54.2843 56.6908 55.3103 54.7231 56.3433C52.6004 57.4575 50.473 58.5621 48.3477 59.671L48.6469 60.3161C52.1109 59.2825 55.6209 58.3789 59.0245 57.1738C61.6458 56.2455 63.157 57.0092 64.4091 59.3905C66.5179 63.4022 68.8372 67.3045 71.095 71.2366C72.5657 73.7974 73.1658 73.8081 74.5996 71.2991C76.9382 67.2088 79.2671 63.1121 81.5528 58.9923C82.6478 57.0193 84.0607 56.2461 86.3806 56.8906C90.1273 57.9321 93.9407 58.7326 97.7259 59.6352Z" fill="#FFBF00"/>
<path d="M116.148 87.671C115.986 87.7298 115.825 87.7891 115.662 87.8479C116.787 92.835 117.865 97.8333 119.058 102.804C119.554 104.872 119.045 106.43 117.393 107.739C113.909 110.502 110.504 113.362 106.992 116.087C105.058 117.589 104.498 119.336 105.103 121.7C106.38 126.692 107.504 131.722 108.714 136.73C109.04 138.08 109.446 139.411 109.816 140.75C110.286 135.122 110.365 129.609 110.25 124.1C110.198 121.569 110.997 119.659 112.994 118.096C115.513 116.125 117.888 113.972 120.373 111.956C126.309 107.14 125.264 107.596 122.682 101.91C120.524 97.1545 118.328 92.4165 116.148 87.671Z" fill="#FFBF00"/>
<path d="M28.6262 88.4614C28.4007 88.4278 28.1757 88.3946 27.9502 88.361C25.3653 93.9989 22.7623 99.6288 20.2067 105.28C19.4083 107.045 19.8679 108.522 21.3931 109.762C24.359 112.173 27.1508 114.817 30.2391 117.054C33.2964 119.269 34.4389 121.975 34.2311 125.717C33.9633 130.54 34.1658 135.389 34.1658 140.226C34.8387 139.902 34.9814 139.523 35.077 139.131C36.5723 133.01 38.1969 126.914 39.4378 120.741C39.6873 119.501 38.8542 117.553 37.865 116.642C34.6677 113.697 31.248 110.971 27.7514 108.381C25.392 106.633 24.8544 104.647 25.5657 101.894C26.7136 97.4495 27.6184 92.9424 28.6262 88.4614Z" fill="#FFBF00"/>
<path d="M38.6098 21.4162C38.2147 20.8087 37.6573 20.4608 36.9378 20.3725C36.2183 20.2843 35.4637 20.4351 34.6741 20.8251C34.0967 21.1103 33.6377 21.4532 33.2969 21.8538C32.9604 22.2524 32.7518 22.6748 32.6713 23.1212C32.595 23.5655 32.6596 23.9957 32.865 24.4118C33.037 24.7599 33.2676 25.0183 33.5568 25.187C33.8482 25.3494 34.1664 25.4483 34.5114 25.4839C34.8543 25.5152 35.1963 25.5127 35.5374 25.4762C35.8764 25.4356 36.1826 25.3873 36.456 25.3315L37.9567 25.0339C38.3404 24.9554 38.779 24.8919 39.2726 24.8435C39.7705 24.793 40.2776 24.8093 40.7938 24.8923C41.3122 24.9689 41.8005 25.1556 42.2585 25.4521C42.7165 25.7487 43.0965 26.2027 43.3984 26.814C43.7465 27.5188 43.8763 28.2468 43.7879 28.998C43.7037 29.7472 43.3921 30.4635 42.853 31.1469C42.3182 31.8283 41.5498 32.4163 40.5479 32.9111C39.6139 33.3724 38.7308 33.6211 37.8984 33.6572C37.0703 33.6913 36.3278 33.5352 35.671 33.1889C35.0184 32.8405 34.4905 32.3223 34.0873 31.6343L35.7175 30.8292C36.0032 31.3006 36.37 31.6264 36.818 31.8065C37.2682 31.9802 37.755 32.0356 38.2783 31.9725C38.8038 31.9031 39.3255 31.7405 39.8434 31.4847C40.4463 31.187 40.9393 30.822 41.3226 30.3898C41.7038 29.9534 41.9475 29.4898 42.0536 28.999C42.1577 28.504 42.0924 28.0188 41.8575 27.5433C41.6437 27.1103 41.3487 26.8177 40.9725 26.6655C40.5963 26.5133 40.1689 26.4498 39.6902 26.475C39.2115 26.5001 38.7115 26.5623 38.1901 26.6613L36.3589 26.9954C35.1954 27.2056 34.1822 27.1858 33.3195 26.9359C32.4568 26.6861 31.8084 26.1217 31.3744 25.243C31.0138 24.5128 30.8967 23.7785 31.0232 23.0401C31.1518 22.2953 31.477 21.6066 31.9989 20.9739C32.523 20.3349 33.2011 19.8099 34.0332 19.399C34.8737 18.9839 35.6953 18.7656 36.498 18.7441C37.2985 18.7184 38.0177 18.8702 38.6556 19.1994C39.2977 19.5265 39.7919 20.0139 40.1381 20.6614L38.6098 21.4162Z" fill="#FFBF00"/>
<path d="M47.9236 11.7075L52.0629 25.6516L50.3743 26.1528L46.2351 12.2087L47.9236 11.7075Z" fill="#FFBF00"/>
<path d="M66.1387 9.37518L67.494 23.8574L65.7969 24.0162L56.8411 13.384L56.6997 13.3972L57.7638 24.768L56.0101 24.9321L54.6548 10.4499L56.3519 10.2911L65.3387 20.9489L65.4801 20.9357L64.4133 9.53666L66.1387 9.37518Z" fill="#FFBF00"/>
<path d="M88.0913 16.3615L86.3544 16.0695C86.3356 15.5526 86.2296 15.0834 86.0364 14.6621C85.8478 14.2415 85.5931 13.8721 85.272 13.5541C84.9564 13.2322 84.5902 12.9689 84.1732 12.7644C83.7563 12.5599 83.3097 12.4176 82.8334 12.3375C81.9649 12.1915 81.1413 12.2787 80.3624 12.5991C79.5882 12.9203 78.9215 13.4732 78.3623 14.2578C77.8077 15.0432 77.4261 16.0569 77.2173 17.2989C77.0084 18.541 77.0377 19.6238 77.3049 20.5474C77.5768 21.4717 78.0261 22.2122 78.6527 22.7689C79.284 23.3263 80.0339 23.6781 80.9024 23.8241C81.3786 23.9041 81.8472 23.9157 82.3081 23.8587C82.769 23.8018 83.2008 23.6751 83.6035 23.4787C84.0117 23.2785 84.3737 23.0104 84.6894 22.6746C85.0106 22.3349 85.2641 21.9262 85.4501 21.4485L87.187 21.7405C86.9331 22.4517 86.5846 23.0677 86.1418 23.5886C85.6989 24.1095 85.1865 24.5299 84.6046 24.8498C84.0234 25.165 83.3954 25.3739 82.7203 25.4764C82.05 25.5798 81.3529 25.5707 80.6292 25.449C79.4058 25.2433 78.3681 24.7616 77.5161 24.0038C76.664 23.246 76.0574 22.2702 75.6964 21.0764C75.3353 19.8826 75.282 18.5292 75.5363 17.0164C75.7906 15.5035 76.2836 14.242 77.0151 13.2319C77.7467 12.2218 78.639 11.4979 79.692 11.0604C80.745 10.6229 81.8832 10.5069 83.1066 10.7126C83.8304 10.8343 84.4921 11.0535 85.0918 11.3704C85.6962 11.6881 86.221 12.0932 86.6663 12.5858C87.1125 13.0737 87.4596 13.6362 87.7078 14.2733C87.9568 14.9057 88.0846 15.6018 88.0913 16.3615Z" fill="#FFBF00"/>
<path d="M91.3924 27.216L97.1124 13.8425L105.184 17.2946L104.569 18.7312L98.1174 15.9718L96.1846 20.4906L102.218 23.0713L101.604 24.5079L95.5702 21.9272L93.6263 26.4721L100.182 29.2762L99.568 30.7128L91.3924 27.216Z" fill="#FFBF00"/>
<path d="M67.4499 306.592L65.9961 311.262H76.9659L78.421 306.592H67.4499Z" fill="#FFC600"/>
</svg>
