<svg width="300" height="519" viewBox="0 0 300 519" fill="none" xmlns="http://www.w3.org/2000/svg">
<mask id="mask0_135_5179" style="mask-type:alpha" maskUnits="userSpaceOnUse" x="0" y="0" width="300" height="519">
<rect y="0.192383" width="300" height="518.686" fill="#D9D9D9"/>
</mask>
<g mask="url(#mask0_135_5179)">
<path d="M169.592 217.81C170.583 222.197 175.617 224.283 179.42 221.881C185.287 218.176 192.108 224.996 188.403 230.864C186.001 234.667 188.087 239.701 192.473 240.692C199.243 242.221 199.243 251.866 192.473 253.396C188.087 254.386 186.001 259.421 188.403 263.224C192.108 269.091 185.288 275.912 179.42 272.206C175.618 269.805 170.583 271.89 169.592 276.277C168.063 283.047 158.417 283.047 156.889 276.277C155.897 271.89 150.863 269.805 147.06 272.206C141.192 275.912 134.372 269.091 138.078 263.224C140.479 259.421 138.394 254.386 134.007 253.396C127.238 251.866 127.237 242.221 134.006 240.692C138.393 239.701 140.479 234.667 138.078 230.864C134.372 224.996 141.192 218.176 147.06 221.881C150.863 224.283 155.897 222.197 156.889 217.81C158.417 211.041 168.063 211.041 169.592 217.81Z" fill="#FFBF00"/>
<circle cx="166.438" cy="272.953" r="20.9853" transform="rotate(-22.5 166.438 272.953)" stroke="black" stroke-width="3.354"/>
<path d="M153.125 247.793L159.87 253.788L173.36 240.298" stroke="black" stroke-width="7.547"/>
<path d="M99.8233 325.953C111.69 323.215 122.147 312.19 134.195 314.577C140.668 315.86 147.186 317.132 153.788 318.696C157.476 319.569 169.65 320.953 164.573 326.921C160.801 331.354 150.547 325.869 145.414 326.521C144.022 329.579 148.301 336.392 151.046 338.175C155.473 341.052 163.777 340.985 169.003 339.883C174.83 338.653 179.228 335.455 184.661 333.191C189.931 330.995 195.615 329.843 201.017 327.901C205.369 326.335 218.254 317.267 222.607 320.604C230.247 326.46 226.66 337.934 215.767 338.177C207.115 338.369 200.344 344.445 192.53 348.343C183.637 352.779 173.562 358.917 163.833 361.411C155.532 363.54 141.674 358.953 133.633 356.558C127.673 354.782 122.083 352.607 115.974 351.114C112.146 350.179 103.931 350.661 100.784 347.883C97.6657 345.131 96.4187 327.239 99.8233 325.953Z" fill="#FFBF00"/>
<path d="M73.6827 317.239C78.1904 320.904 88.7906 312.663 95.1832 315.345C101.573 318.025 98.5351 331.379 98.2644 336.733C97.9063 343.823 101.072 353.194 91.9038 354.473C84.494 355.507 74.0125 354.912 72.246 346.745C70.3841 338.138 72.927 326.704 73.6827 317.239Z" fill="#FFBF00"/>
<path d="M143.394 327.889L160.186 330.414C161.515 330.656 162.883 330.32 163.949 329.491C168.198 326.187 169.998 320.623 168.491 315.456L167.599 312.398L133.169 303.58C129.75 302.705 126.14 302.961 122.879 304.31L99.8242 313.85" stroke="#161615" stroke-width="5.87"/>
<path d="M167.79 323.827L219.882 310.462C226.64 315.456 229.779 323.991 227.87 332.175L227.682 332.979C227.648 333.127 227.546 333.251 227.406 333.313L164.467 361.337C162.413 362.252 160.12 362.485 157.923 362.002L97.4023 348.706" stroke="#161615" stroke-width="5.87"/>
<path d="M72.75 309.439C72.75 305.191 76.1934 301.748 80.441 301.748H91.1649C95.413 301.748 98.8569 305.191 98.8569 309.44V345.856C98.8569 350.104 95.4135 353.547 91.1659 353.547H80.442C76.1938 353.547 72.75 350.103 72.75 345.855V309.439Z" stroke="#161615" stroke-width="7.547"/>
<path d="M87.7368 313.358C87.7368 314.699 86.6491 315.787 85.3078 315.787C83.9666 315.787 82.8789 314.699 82.8789 313.358C82.8789 312.017 83.9666 310.929 85.3078 310.929C86.6491 310.929 87.7368 312.017 87.7368 313.358Z" fill="#161615"/>
<path d="M172.115 206.209C173.5 212.337 180.532 215.25 185.844 211.895C194.04 206.72 203.567 216.246 198.391 224.443C195.037 229.754 197.95 236.787 204.078 238.171C213.534 240.307 213.534 253.78 204.078 255.916C197.95 257.3 195.037 264.333 198.391 269.645C203.566 277.841 194.04 287.368 185.844 282.192C180.532 278.837 173.5 281.75 172.115 287.878C169.979 297.334 156.507 297.334 154.37 287.878C152.986 281.75 145.954 278.837 140.642 282.192C132.446 287.368 122.919 277.841 128.095 269.645C131.449 264.333 128.536 257.3 122.408 255.916C112.952 253.78 112.952 240.307 122.408 238.171C128.536 236.787 131.449 229.754 128.095 224.443C122.919 216.246 132.446 206.72 140.642 211.895C145.954 215.25 152.986 212.337 154.37 206.209C156.507 196.753 169.979 196.753 172.115 206.209Z" stroke="#161615" stroke-width="5.87"/>
</g>
<path d="M97.56 117.953H106.36L106.16 118.873H98.38L97.2 124.513H103.78L103.6 125.393H97L95.56 132.153H94.54L97.56 117.953ZM113.27 132.253C112.417 132.253 111.67 132.093 111.03 131.773C110.403 131.453 109.877 131.02 109.45 130.473C109.037 129.927 108.723 129.307 108.51 128.613C108.31 127.92 108.21 127.193 108.21 126.433C108.21 125.54 108.35 124.673 108.63 123.833C108.91 122.98 109.297 122.193 109.79 121.473C110.297 120.753 110.883 120.127 111.55 119.593C112.217 119.047 112.943 118.62 113.73 118.313C114.517 118.007 115.33 117.853 116.17 117.853C117.023 117.853 117.763 118.02 118.39 118.353C119.03 118.673 119.557 119.113 119.97 119.673C120.397 120.22 120.71 120.84 120.91 121.533C121.11 122.227 121.21 122.953 121.21 123.713C121.21 124.607 121.07 125.473 120.79 126.313C120.523 127.14 120.137 127.913 119.63 128.633C119.137 129.353 118.55 129.987 117.87 130.533C117.203 131.067 116.477 131.487 115.69 131.793C114.917 132.1 114.11 132.253 113.27 132.253ZM113.45 131.313C114.397 131.313 115.277 131.1 116.09 130.673C116.903 130.233 117.617 129.653 118.23 128.933C118.843 128.213 119.317 127.407 119.65 126.513C119.997 125.607 120.17 124.693 120.17 123.773C120.17 122.893 120.017 122.08 119.71 121.333C119.417 120.573 118.957 119.96 118.33 119.493C117.717 119.027 116.937 118.793 115.99 118.793C115.043 118.793 114.163 119.007 113.35 119.433C112.537 119.86 111.823 120.44 111.21 121.173C110.597 121.893 110.117 122.707 109.77 123.613C109.423 124.507 109.25 125.42 109.25 126.353C109.25 127.233 109.403 128.053 109.71 128.813C110.017 129.56 110.477 130.167 111.09 130.633C111.717 131.087 112.503 131.313 113.45 131.313ZM129.823 132.273C128.983 132.273 128.243 132.107 127.603 131.773C126.976 131.44 126.443 130.993 126.003 130.433C125.576 129.873 125.249 129.247 125.023 128.553C124.809 127.847 124.703 127.127 124.703 126.393C124.703 125.593 124.829 124.793 125.083 123.993C125.336 123.18 125.696 122.407 126.163 121.673C126.629 120.94 127.189 120.293 127.843 119.733C128.496 119.16 129.229 118.707 130.043 118.373C130.856 118.04 131.736 117.873 132.683 117.873C133.936 117.873 134.923 118.167 135.643 118.753C136.376 119.34 136.856 120.08 137.083 120.973L136.203 121.413C136.016 120.76 135.736 120.24 135.363 119.853C135.003 119.467 134.583 119.2 134.103 119.053C133.623 118.893 133.109 118.813 132.563 118.813C131.523 118.813 130.583 119.04 129.743 119.493C128.903 119.947 128.183 120.54 127.583 121.273C126.996 122.007 126.536 122.82 126.203 123.713C125.883 124.593 125.723 125.467 125.723 126.333C125.723 127.227 125.889 128.053 126.223 128.813C126.569 129.573 127.056 130.187 127.683 130.653C128.323 131.107 129.096 131.333 130.003 131.333C130.536 131.333 131.096 131.24 131.683 131.053C132.269 130.853 132.836 130.553 133.383 130.153C133.943 129.74 134.443 129.207 134.883 128.553L135.683 128.973C135.216 129.707 134.649 130.32 133.983 130.813C133.329 131.307 132.643 131.673 131.923 131.913C131.203 132.153 130.503 132.273 129.823 132.273ZM144.866 132.253C143.773 132.253 142.9 132.047 142.246 131.633C141.606 131.207 141.146 130.64 140.866 129.933C140.6 129.227 140.466 128.447 140.466 127.593C140.466 127.18 140.486 126.767 140.526 126.353C140.58 125.94 140.653 125.52 140.746 125.093L142.266 117.953H143.286L141.766 125.093C141.686 125.493 141.62 125.887 141.566 126.273C141.513 126.66 141.486 127.047 141.486 127.433C141.486 128.153 141.593 128.807 141.806 129.393C142.02 129.98 142.386 130.447 142.906 130.793C143.426 131.14 144.126 131.313 145.006 131.313C145.913 131.313 146.706 131.133 147.386 130.773C148.066 130.413 148.64 129.933 149.106 129.333C149.586 128.733 149.98 128.067 150.286 127.333C150.593 126.587 150.826 125.84 150.986 125.093L152.486 117.953H153.506L152.006 125.093C151.806 126.053 151.513 126.967 151.126 127.833C150.74 128.687 150.253 129.447 149.666 130.113C149.093 130.767 148.406 131.287 147.606 131.673C146.82 132.06 145.906 132.253 144.866 132.253ZM160.239 132.273C159.159 132.273 158.219 132.1 157.419 131.753C156.619 131.407 155.899 130.873 155.259 130.153L155.959 129.333C156.186 129.627 156.446 129.893 156.739 130.133C157.032 130.373 157.366 130.587 157.739 130.773C158.112 130.96 158.519 131.107 158.959 131.213C159.412 131.307 159.912 131.353 160.459 131.353C161.326 131.353 162.079 131.227 162.719 130.973C163.372 130.72 163.879 130.353 164.239 129.873C164.599 129.393 164.779 128.82 164.779 128.153C164.779 127.607 164.639 127.18 164.359 126.873C164.092 126.553 163.686 126.293 163.139 126.093C162.606 125.88 161.946 125.673 161.159 125.473C160.359 125.273 159.679 125.067 159.119 124.853C158.559 124.627 158.132 124.333 157.839 123.973C157.559 123.613 157.419 123.113 157.419 122.473C157.419 121.767 157.559 121.133 157.839 120.573C158.119 120 158.512 119.513 159.019 119.113C159.526 118.7 160.119 118.387 160.799 118.173C161.479 117.96 162.226 117.853 163.039 117.853C163.639 117.853 164.179 117.92 164.659 118.053C165.152 118.173 165.592 118.36 165.979 118.613C166.366 118.853 166.706 119.153 166.999 119.513L166.299 120.313C166.139 120.073 165.946 119.86 165.719 119.673C165.492 119.473 165.232 119.307 164.939 119.173C164.646 119.04 164.332 118.94 163.999 118.873C163.666 118.807 163.299 118.773 162.899 118.773C161.926 118.773 161.112 118.927 160.459 119.233C159.819 119.54 159.332 119.953 158.999 120.473C158.679 120.98 158.519 121.553 158.519 122.193C158.519 122.687 158.639 123.073 158.879 123.353C159.132 123.633 159.506 123.867 159.999 124.053C160.492 124.227 161.119 124.407 161.879 124.593C162.759 124.807 163.492 125.04 164.079 125.293C164.679 125.547 165.132 125.873 165.439 126.273C165.746 126.66 165.899 127.2 165.899 127.893C165.899 128.627 165.752 129.273 165.459 129.833C165.166 130.38 164.759 130.833 164.239 131.193C163.732 131.553 163.139 131.827 162.459 132.013C161.779 132.187 161.039 132.273 160.239 132.273ZM182.079 132.253C181.225 132.253 180.479 132.093 179.839 131.773C179.212 131.453 178.685 131.02 178.259 130.473C177.845 129.927 177.532 129.307 177.319 128.613C177.119 127.92 177.019 127.193 177.019 126.433C177.019 125.54 177.159 124.673 177.439 123.833C177.719 122.98 178.105 122.193 178.599 121.473C179.105 120.753 179.692 120.127 180.359 119.593C181.025 119.047 181.752 118.62 182.539 118.313C183.325 118.007 184.139 117.853 184.979 117.853C185.832 117.853 186.572 118.02 187.199 118.353C187.839 118.673 188.365 119.113 188.779 119.673C189.205 120.22 189.519 120.84 189.719 121.533C189.919 122.227 190.019 122.953 190.019 123.713C190.019 124.607 189.879 125.473 189.599 126.313C189.332 127.14 188.945 127.913 188.439 128.633C187.945 129.353 187.359 129.987 186.679 130.533C186.012 131.067 185.285 131.487 184.499 131.793C183.725 132.1 182.919 132.253 182.079 132.253ZM182.259 131.313C183.205 131.313 184.085 131.1 184.899 130.673C185.712 130.233 186.425 129.653 187.039 128.933C187.652 128.213 188.125 127.407 188.459 126.513C188.805 125.607 188.979 124.693 188.979 123.773C188.979 122.893 188.825 122.08 188.519 121.333C188.225 120.573 187.765 119.96 187.139 119.493C186.525 119.027 185.745 118.793 184.799 118.793C183.852 118.793 182.972 119.007 182.159 119.433C181.345 119.86 180.632 120.44 180.019 121.173C179.405 121.893 178.925 122.707 178.579 123.613C178.232 124.507 178.059 125.42 178.059 126.353C178.059 127.233 178.212 128.053 178.519 128.813C178.825 129.56 179.285 130.167 179.899 130.633C180.525 131.087 181.312 131.313 182.259 131.313ZM196.091 117.953H196.891L203.611 130.453L206.251 117.973H207.271L204.251 132.153H203.351L196.711 119.873L194.091 132.153H193.071L196.091 117.953Z" fill="#FFBF00"/>
<path d="M110.02 157.476C109.167 157.476 108.42 157.316 107.78 156.996C107.153 156.676 106.627 156.243 106.2 155.696C105.787 155.15 105.473 154.53 105.26 153.836C105.06 153.143 104.96 152.416 104.96 151.656C104.96 150.763 105.1 149.896 105.38 149.056C105.66 148.203 106.047 147.416 106.54 146.696C107.047 145.976 107.633 145.35 108.3 144.816C108.967 144.27 109.693 143.843 110.48 143.536C111.267 143.23 112.08 143.076 112.92 143.076C113.773 143.076 114.513 143.243 115.14 143.576C115.78 143.896 116.307 144.336 116.72 144.896C117.147 145.443 117.46 146.063 117.66 146.756C117.86 147.45 117.96 148.176 117.96 148.936C117.96 149.83 117.82 150.696 117.54 151.536C117.273 152.363 116.887 153.136 116.38 153.856C115.887 154.576 115.3 155.21 114.62 155.756C113.953 156.29 113.227 156.71 112.44 157.016C111.667 157.323 110.86 157.476 110.02 157.476ZM114.8 157.376L112.4 153.256H113.44L115.86 157.376H114.8ZM110.2 156.536C111.147 156.536 112.027 156.323 112.84 155.896C113.653 155.456 114.367 154.876 114.98 154.156C115.593 153.436 116.067 152.63 116.4 151.736C116.747 150.83 116.92 149.916 116.92 148.996C116.92 148.116 116.767 147.296 116.46 146.536C116.167 145.776 115.707 145.17 115.08 144.716C114.467 144.25 113.687 144.016 112.74 144.016C111.793 144.016 110.913 144.23 110.1 144.656C109.287 145.083 108.573 145.663 107.96 146.396C107.347 147.116 106.867 147.93 106.52 148.836C106.173 149.73 106 150.643 106 151.576C106 152.456 106.153 153.276 106.46 154.036C106.767 154.783 107.227 155.39 107.84 155.856C108.467 156.31 109.253 156.536 110.2 156.536ZM126.413 157.476C125.32 157.476 124.446 157.27 123.793 156.856C123.153 156.43 122.693 155.863 122.413 155.156C122.146 154.45 122.013 153.67 122.013 152.816C122.013 152.403 122.033 151.99 122.073 151.576C122.126 151.163 122.2 150.743 122.293 150.316L123.813 143.176H124.833L123.313 150.316C123.233 150.716 123.166 151.11 123.113 151.496C123.06 151.883 123.033 152.27 123.033 152.656C123.033 153.376 123.14 154.03 123.353 154.616C123.566 155.203 123.933 155.67 124.453 156.016C124.973 156.363 125.673 156.536 126.553 156.536C127.46 156.536 128.253 156.356 128.933 155.996C129.613 155.636 130.186 155.156 130.653 154.556C131.133 153.956 131.526 153.29 131.833 152.556C132.14 151.81 132.373 151.063 132.533 150.316L134.033 143.176H135.053L133.553 150.316C133.353 151.276 133.06 152.19 132.673 153.056C132.286 153.91 131.8 154.67 131.213 155.336C130.64 155.99 129.953 156.51 129.153 156.896C128.366 157.283 127.453 157.476 126.413 157.476ZM144.435 143.176H145.315L147.975 157.376H146.895L146.015 152.696H139.635L136.795 157.376H135.695L144.435 143.176ZM145.935 151.856L144.615 144.416L140.055 151.856H145.935ZM155.103 143.176H156.123L153.303 156.456H161.323L161.123 157.376H152.083L155.103 143.176ZM168.197 143.196H169.217L166.197 157.376H165.177L168.197 143.196ZM178.085 144.096H173.165L173.345 143.176H184.225L184.025 144.096H179.105L176.265 157.376H175.265L178.085 144.096ZM190.167 151.976L186.747 143.176H187.887L190.887 151.036L197.247 143.176H198.367L191.187 152.016L190.027 157.376H189.027L190.167 151.976Z" fill="#FFBF00"/>
<path d="M145.454 443.592L144 448.262H154.97L156.425 443.592H145.454Z" fill="#FFC600"/>
</svg>
