<svg width="300" height="520" viewBox="0 0 300 520" fill="none" xmlns="http://www.w3.org/2000/svg">
<mask id="mask0_135_5203" style="mask-type:alpha" maskUnits="userSpaceOnUse" x="0" y="0" width="300" height="520">
<rect y="0.505859" width="300" height="518.686" fill="#D9D9D9"/>
</mask>
<g mask="url(#mask0_135_5203)">
<path d="M157.674 238.743C158.872 244.045 164.956 246.565 169.552 243.663C176.643 239.185 184.885 247.427 180.407 254.519C177.505 259.114 180.025 265.198 185.326 266.396C193.507 268.243 193.507 279.9 185.326 281.747C180.025 282.945 177.505 289.029 180.407 293.624C184.885 300.716 176.643 308.958 169.552 304.479C164.956 301.578 158.872 304.098 157.674 309.399C155.826 317.58 144.17 317.58 142.323 309.399C141.125 304.098 135.041 301.578 130.445 304.479C123.354 308.958 115.112 300.716 119.59 293.624C122.492 289.029 119.972 282.945 114.67 281.747C106.49 279.9 106.49 268.243 114.67 266.396C119.972 265.198 122.492 259.114 119.59 254.519C115.112 247.427 123.354 239.185 130.445 243.663C135.041 246.565 141.125 244.045 142.323 238.743C144.17 230.563 155.826 230.563 157.674 238.743Z" fill="#FFC600"/>
<circle cx="193.687" cy="274.562" r="25.3603" transform="rotate(-82.0273 193.687 274.562)" stroke="#161615" stroke-width="4.053"/>
<path d="M160.722 224.723C162.395 232.129 170.894 235.649 177.313 231.595C187.219 225.341 198.731 236.853 192.476 246.759C188.422 253.178 191.943 261.676 199.348 263.35C210.775 265.93 210.776 282.212 199.349 284.793C191.943 286.466 188.422 294.964 192.476 301.384C198.731 311.289 187.219 322.802 177.313 316.548C170.894 312.493 162.395 316.014 160.722 323.42C158.141 334.846 141.86 334.846 139.278 323.42C137.605 316.014 129.107 312.493 122.687 316.548C112.782 322.802 101.269 311.289 107.524 301.384C111.578 294.964 108.058 286.466 100.652 284.793C89.2253 282.212 89.2253 265.93 100.652 263.35C108.058 261.676 111.578 253.178 107.524 246.759C101.269 236.853 112.782 225.341 122.687 231.595C129.107 235.649 137.605 232.129 139.278 224.723C141.86 213.296 158.141 213.296 160.722 224.723Z" stroke="#161615" stroke-width="7.093"/>
<path d="M151.117 261.741L153.336 269.278L161.191 269.06C162.947 269.012 163.685 271.282 162.235 272.275L155.753 276.716L158.387 284.118C158.976 285.773 157.045 287.177 155.653 286.105L149.426 281.312L143.2 286.105C141.808 287.177 139.877 285.773 140.466 284.118L143.1 276.716L136.617 272.275C135.168 271.282 135.906 269.012 137.662 269.06L145.517 269.278L147.736 261.741C148.233 260.056 150.62 260.056 151.117 261.741Z" stroke="#161615" stroke-width="4.053"/>
</g>
</svg>
