<svg xmlns="http://www.w3.org/2000/svg" width="512" height="512" viewBox="0 0 512 512" fill="none"><path d="M361.187 139.662H275.185V373.779H361.187V139.662Z" fill="#FFC600"></path><path fill-rule="evenodd" clip-rule="evenodd" d="M201.639 96.8662L119.585 141.977V370.036L201.649 415.125L201.639 96.8662Z" fill="#FFC600"></path><path fill-rule="evenodd" clip-rule="evenodd" d="M256.134 35.3724C299.763 35.4051 342.403 48.3725 378.663 72.6352C414.924 96.8981 443.176 131.366 459.849 171.684C476.522 212.001 480.868 256.357 472.337 299.143C463.806 341.931 442.78 381.227 411.918 412.066C381.056 442.904 341.744 463.901 298.95 472.4C256.158 480.9 211.805 476.52 171.5 459.817C131.196 443.113 96.7477 414.835 72.5123 378.557C48.2768 342.278 35.3413 299.629 35.3413 256C35.3454 227.014 41.0604 198.312 52.1597 171.536C63.2591 144.759 79.5253 120.432 100.029 99.9434C120.533 79.4547 144.872 63.2067 171.658 52.1274C198.443 41.0481 227.149 35.3547 256.134 35.3724ZM256.134 5.18281e-06C306.76 0.0265652 356.242 15.0633 398.323 43.2091C440.405 71.3549 473.196 111.346 492.551 158.126C511.907 204.907 516.958 256.375 507.064 306.025C497.171 355.676 472.78 401.278 436.972 437.066C401.164 472.855 355.549 497.223 305.893 507.091C256.238 516.958 204.772 511.88 158.002 492.5C111.232 473.12 71.2581 440.308 43.1345 398.212C15.0108 356.116 0 306.626 0 256C0.0219733 188.088 27.0188 122.965 75.0523 74.9573C123.086 26.9489 188.222 -0.0136481 256.134 5.18281e-06Z" fill="#707070"></path></svg>