<svg xmlns="http://www.w3.org/2000/svg" width="32" height="32" viewBox="0 0 32 32"><g id="Group_208" data-name="Group 208" transform="translate(161 -945.18)"><g id="instagram-svgrepo-com" transform="translate(-18 800.18)"><path id="Path_235" data-name="Path 235" d="M-127,145a16,16,0,0,0-16,16,16,16,0,0,0,16,16,16,16,0,0,0,16-16A16,16,0,0,0-127,145Zm9.987,25.981a13.972,13.972,0,0,1-4.487,3.025,13.991,13.991,0,0,1-5.5,1.106,14.149,14.149,0,0,1-5.5-1.106,14.107,14.107,0,0,1-4.488-3.025,13.972,13.972,0,0,1-3.025-4.488A13.989,13.989,0,0,1-141.125,161a14.149,14.149,0,0,1,1.106-5.5,14.106,14.106,0,0,1,3.025-4.488,14.187,14.187,0,0,1,4.494-3.031,14.149,14.149,0,0,1,5.5-1.106,14.149,14.149,0,0,1,5.5,1.106,14.106,14.106,0,0,1,4.487,3.025,13.971,13.971,0,0,1,3.025,4.487,13.991,13.991,0,0,1,1.106,5.5,14.149,14.149,0,0,1-1.106,5.5A14.106,14.106,0,0,1-117.013,170.981Z" fill="#ffbf00"></path></g><path id="instagram-svgrepo-com_1_" data-name="instagram-svgrepo-com (1)" d="M14.194,4.723h0a.957.957,0,1,1-.957-.957h0a.957.957,0,0,1,.957.956ZM8.979,11.638a2.659,2.659,0,1,1,2.659-2.659h0A2.657,2.657,0,0,1,8.98,11.637h0Zm0-6.754h0a4.1,4.1,0,1,0,4.1,4.1h0a4.1,4.1,0,0,0-4.1-4.1h0Zm0-2.444c2.129,0,2.383.011,3.223.047a4.381,4.381,0,0,1,1.51.286l-.03-.01a2.64,2.64,0,0,1,1.508,1.5l.006.018a4.316,4.316,0,0,1,.274,1.477v0c.038.841.046,1.094.046,3.223s-.01,2.383-.049,3.223a4.485,4.485,0,0,1-.29,1.511l.01-.031a2.545,2.545,0,0,1-.6.918h0a2.491,2.491,0,0,1-.9.59l-.017.006a4.345,4.345,0,0,1-1.483.274h0c-.847.038-1.1.046-3.229.046s-2.383-.01-3.229-.049a4.522,4.522,0,0,1-1.517-.29l.031.01a2.477,2.477,0,0,1-.916-.6h0a2.426,2.426,0,0,1-.592-.9l-.005-.016a4.44,4.44,0,0,1-.279-1.481v0c-.03-.838-.04-1.1-.04-3.219s.011-2.383.04-3.231A4.513,4.513,0,0,1,2.74,4.225l-.01.031a2.375,2.375,0,0,1,.6-.917h0a2.365,2.365,0,0,1,.9-.591l.016-.005a4.324,4.324,0,0,1,1.472-.28h0c.847-.03,1.1-.04,3.229-.04ZM8.979,1c-2.167,0-2.437.01-3.288.048a5.867,5.867,0,0,0-1.976.385l.04-.013a3.929,3.929,0,0,0-1.413.919h0a3.9,3.9,0,0,0-.911,1.386l-.009.027a5.74,5.74,0,0,0-.371,1.929v.006C1.012,6.542,1,6.813,1,8.979s.01,2.437.048,3.288a5.867,5.867,0,0,0,.385,1.976l-.013-.04a4.1,4.1,0,0,0,2.3,2.323l.028.01a5.766,5.766,0,0,0,1.929.371h.006c.851.04,1.121.048,3.288.048s2.437-.01,3.288-.048a5.88,5.88,0,0,0,1.976-.385l-.04.014a4.1,4.1,0,0,0,2.323-2.3l.01-.028a5.753,5.753,0,0,0,.371-1.929v-.006c.04-.851.048-1.121.048-3.288s-.01-2.437-.048-3.288a5.88,5.88,0,0,0-.385-1.976l.014.04a3.93,3.93,0,0,0-.92-1.413h0a3.9,3.9,0,0,0-1.386-.911L14.2,1.423a5.74,5.74,0,0,0-1.929-.371h-.006C11.416,1.012,11.145,1,8.979,1Z" transform="translate(-153.979 952.201)" fill="#ffbf00"></path></g></svg>