<?xml version="1.0" encoding="UTF-8"?>
<svg xmlns="http://www.w3.org/2000/svg" width="818" height="148" viewBox="0 0 818 148" fill="none">
  <g clip-path="url(#clip0_91_536)">
    <path opacity="0.7" fill-rule="evenodd" clip-rule="evenodd" d="M68.86 10.3498C101.62 10.3698 128.15 36.9498 128.13 69.7098C128.11 102.47 101.53 129 68.77 128.98C36.03 128.96 9.5 102.41 9.5 69.6698C9.5 36.9098 36.07 10.3498 68.83 10.3598H68.85M68.86 0.839846C106.87 0.859846 137.67 31.6898 137.65 69.6998C137.63 107.71 106.8 138.51 68.79 138.49C30.79 138.46 0 107.66 0 69.6599C0.01 31.6399 30.84 0.829846 68.86 0.839846Z" fill="white"></path>
    <g opacity="0.7">
      <path fill-rule="evenodd" clip-rule="evenodd" d="M474.84 0.000114746H584.58L577 24.3401H502.52C502.08 24.3601 501.7 24.6501 501.56 25.0701L497.82 37.0601L498.32 37.7801H572.81L566.13 59.1801H491.65L490.69 59.9401C489.01 65.2801 490.04 69.0601 493.72 71.2401C496.31 72.6601 502.51 73.3701 512.33 73.3801H561.72L554.69 95.9201H474.38C466.98 95.9501 459.8 93.3601 454.12 88.6101C450.77 84.6101 450.17 79.1601 452.3 72.2901L474.84 0.000114746Z" fill="white"></path>
      <path fill-rule="evenodd" clip-rule="evenodd" d="M751.71 0.000114746H817.42L810.2 23.2001H767.36C755.74 23.2001 748.48 27.8201 745.6 37.0601L746.23 37.3701H805.77L799.21 58.4401H740.07C739.63 58.4701 739.24 58.7501 739.09 59.1701L727.67 95.8401H688.05L710.57 23.6001C713.57 13.9701 719.45 7.54011 728.21 4.33011C735.68 1.34011 743.66 -0.129885 751.7 0.000114746" fill="white"></path>
      <path d="M698.58 12.3201C695.52 4.10011 684.08 0.000114746 664.26 0.000114746H596.41L566.57 95.7801H601.05L607.48 75.1101L608.45 74.3601H647.32L647.75 75.1101L641.32 95.7801H676.21L697.23 28.2901C699.3 21.6401 699.75 16.3101 698.59 12.3101M659.72 36.6501L654.75 52.6401L653.88 53.3301H615L614.49 52.6401L622.74 26.1501L623.7 25.4201H654.21C659.21 25.4201 661.08 29.1701 659.73 36.6501" fill="white"></path>
      <path fill-rule="evenodd" clip-rule="evenodd" d="M352.71 0.000114746H387.47L364.81 72.7001L365.32 73.3801H440.21L433.15 96.0601H322.79L352.71 0.000114746Z" fill="white"></path>
      <path fill-rule="evenodd" clip-rule="evenodd" d="M265.97 39.5501H321.64L315.07 60.6201H259.59L265.98 39.5501H265.97Z" fill="white"></path>
      <path fill-rule="evenodd" clip-rule="evenodd" d="M251.49 26.1501L229.84 95.6601H190.54L212.2 26.1501H251.49Z" fill="white"></path>
    </g>
    <path d="M220.34 0L215.14 16.73H254.43L259.63 0H220.34Z" fill="#FFC600"></path>
    <path d="M97.1 38.3799H73.98V101.32H97.1V38.3799Z" fill="#FFC600"></path>
    <path fill-rule="evenodd" clip-rule="evenodd" d="M54.21 26.8799L32.15 38.9999V100.31L54.21 112.43V26.8799Z" fill="#FFC600"></path>
    <path d="M520.41 118C515.38 118 512.56 120.92 512.56 124.34C512.56 127.96 515.25 129.33 518.35 130.23C521.83 131.24 523.29 132.38 523.29 134.61C523.29 137.13 521.19 138.8 518.21 138.8C515.02 138.8 512.85 137.49 512.62 133.96H510.02C510.14 137.86 512.62 140.78 517.94 140.78C522.83 140.78 526.03 138.23 526.03 134.41C526.03 131 523.79 129.37 519.61 128.15C517.05 127.41 515.34 126.32 515.34 124.08C515.34 122.02 516.89 120.02 520.23 120.02C522.97 120.02 524.57 121.48 524.82 124.57H527.41C527.3 120.59 525.02 118 520.41 118ZM511.79 118.56H509.03L500.17 137.49L498.21 118.6H494.98L486.46 137.52L484.37 118.55H481.53L484.48 140.05H487.57L496.19 121.04L498.13 140.05H501.16L511.8 118.55L511.79 118.56ZM466.84 138.63C462.65 138.63 460.3 135.55 460.3 131.16C460.3 126.13 463.31 120.02 469.37 120.02C473.54 120.02 475.91 123.08 475.91 127.46C475.91 132.54 472.86 138.63 466.85 138.63M469.68 118C461.14 118 457.53 125.56 457.53 131.2C457.53 136.27 460.25 140.63 466.51 140.63C475.04 140.63 478.66 133.11 478.66 127.41C478.66 122.39 475.93 117.99 469.68 117.99M450.89 129.82C449.72 136.31 445.98 138.63 442.16 138.63C438.34 138.63 436.35 135.75 436.35 131.77C436.35 125.92 439.68 120.02 445.59 120.02C450.38 120.02 451.97 123.8 451.19 128.19L450.9 129.82H450.89ZM456.86 110.2H454.35L452.16 122.54L451.29 120.31C449.96 118.72 447.95 117.87 445.89 118C437.72 118 433.62 125.19 433.62 131.9C433.62 136.86 436.34 140.64 441.47 140.64C443.82 140.73 446.13 139.95 447.93 138.45L449.75 136.12L449.06 140.07H451.58L456.86 110.22V110.2ZM424.04 118C421.68 117.94 419.39 118.76 417.61 120.31L416.02 122.68L416.75 118.57H414.23L410.46 140.06H412.96L414.84 129.38V129.33C416.01 122.68 419.55 120.11 423.21 120.08C426.54 120.03 427.88 121.81 427.88 124.34C427.83 125.68 427.67 127 427.39 128.31L425.28 140.06H427.8L430 128.03C430.31 126.59 430.47 125.12 430.48 123.64C430.48 120.19 428.29 118 424.02 118M404.51 140.05L408.3 118.55H405.78L402 140.05H404.51ZM408.17 112.22C407.07 112.2 406.16 113.09 406.14 114.19C406.14 114.19 406.14 114.2 406.14 114.21C406.14 115 406.77 115.63 407.56 115.64C407.58 115.64 407.59 115.64 407.61 115.64C408.7 115.64 409.59 114.77 409.59 113.68C409.59 113.67 409.59 113.66 409.59 113.65C409.61 112.89 409.01 112.25 408.25 112.23C408.22 112.23 408.2 112.23 408.17 112.23M402.69 118.56H399.93L391.07 137.49L389.12 118.6H385.87L377.37 137.52L375.25 118.55H372.41L375.37 140.05H378.46L387.09 121.04L389.04 140.05H392.04L402.7 118.55L402.69 118.56ZM357.65 129.82C356.47 136.31 352.73 138.63 348.91 138.63C345.09 138.63 343.1 135.75 343.1 131.77C343.1 125.92 346.44 120.02 352.32 120.02C357.12 120.02 358.72 123.8 357.93 128.19L357.65 129.82ZM363.63 110.2H361.11L358.91 122.54L358.06 120.31C356.72 118.72 354.72 117.87 352.65 118C344.49 118 340.39 125.19 340.39 131.9C340.39 136.86 343.11 140.64 348.23 140.64C350.58 140.74 352.88 139.96 354.68 138.45L356.52 136.12L355.82 140.07H358.35L363.64 110.21L363.63 110.2ZM330.79 118C328.44 117.94 326.15 118.76 324.37 120.31L322.77 122.68L323.51 118.57H320.99L317.2 140.06H319.71L321.59 129.38V129.33C322.77 122.68 326.31 120.11 329.96 120.08C333.3 120.03 334.63 121.81 334.63 124.34C334.59 125.67 334.43 127 334.15 128.31L332.04 140.06H334.56L336.75 128.03C337.07 126.59 337.23 125.12 337.25 123.64C337.25 120.19 335.05 118 330.79 118ZM303.4 138.62C300.93 138.62 299.21 137.33 299.21 134.97C299.21 130.58 304.41 128.56 311.32 129.25L310.86 131.76C310.18 135.55 306.81 138.62 303.4 138.62ZM308.18 117.99C303.34 117.99 299.85 120.7 298.95 124.94H301.55C302.42 121.6 304.63 120.01 308.1 120.01C311.03 120.01 312.13 121.47 312.13 123.59C312.11 124.58 311.98 125.56 311.76 126.52L311.64 127.34C303.42 126.73 296.48 128.91 296.48 135.21C296.48 138.9 299.24 140.62 302.3 140.62C304.67 140.73 306.98 139.84 308.66 138.17L310.09 136.19L309.72 140.05H312.29C312.39 138.03 312.61 136.02 312.95 134.03L314.34 126.45C314.53 125.4 314.66 124.34 314.71 123.27C314.71 120.14 312.67 117.98 308.2 117.98M280.22 117.99C275.17 117.99 272.39 120.91 272.39 124.33C272.39 127.95 275.05 129.32 278.13 130.22C281.63 131.23 283.11 132.37 283.11 134.6C283.11 137.12 280.98 138.79 278.02 138.79C274.81 138.79 272.64 137.48 272.42 133.95H269.81C269.94 137.85 272.42 140.77 277.74 140.77C282.62 140.77 285.83 138.22 285.83 134.4C285.83 130.99 283.59 129.36 279.4 128.14C276.85 127.4 275.14 126.31 275.14 124.07C275.14 122.01 276.69 120.01 280.03 120.01C282.79 120.01 284.38 121.47 284.61 124.56H287.23C287.11 120.58 284.84 117.99 280.24 117.99M270.25 118.08C268.78 118.13 267.37 118.7 266.28 119.7L264.28 122.42L264.97 118.52H262.45L258.64 140.06H261.16L263.28 127.98L263.32 127.83C264.46 121.69 267.86 119.98 271.12 120.23L271.5 118.25L270.26 118.09L270.25 118.08ZM244.61 138.63C240.42 138.63 238.06 135.55 238.06 131.16C238.06 126.13 241.08 120.02 247.13 120.02C251.32 120.02 253.67 123.08 253.67 127.46C253.67 132.54 250.63 138.63 244.61 138.63ZM247.47 117.99C238.93 117.99 235.31 125.55 235.31 131.19C235.31 136.26 238.02 140.62 244.29 140.62C252.83 140.62 256.43 133.1 256.43 127.4C256.43 122.38 253.71 117.98 247.47 117.98M221.29 138.63C217.09 138.63 214.73 135.55 214.73 131.16C214.73 126.13 217.73 120.02 223.79 120.02C227.99 120.02 230.35 123.08 230.35 127.46C230.35 132.54 227.29 138.63 221.28 138.63M224.12 118C215.59 118 211.98 125.56 211.98 131.2C211.98 136.27 214.69 140.63 220.95 140.63C229.49 140.63 233.12 133.11 233.12 127.41C233.12 122.39 230.38 117.99 224.12 117.99M195.59 137.77C194.49 137.89 193.39 137.94 192.29 137.93H187.22L191.44 114.13H196.53C197.54 114.1 198.56 114.14 199.57 114.25C203.8 114.74 207.09 117.78 207.09 124C207.09 130.22 203.34 136.85 195.59 137.77ZM199.98 112.13C198.89 112.03 197.79 111.99 196.69 112.02H189.29L184.33 140.05H191.73C193.07 140.05 193.89 140.05 195.33 139.93C204.68 139.11 209.85 131.52 209.85 123.93C209.85 116.34 205.29 112.58 199.97 112.13" fill="#191818"></path>
    <path d="M580.2 124.48H576.2C576.26 124.1 576.29 123.77 576.29 123.49C576.29 122.58 575.99 121.88 575.4 121.38C574.58 120.69 573.21 120.35 571.26 120.35C570.13 120.35 569.11 120.54 568.21 120.91C566.77 121.51 565.91 122.48 565.63 123.82C565.57 124.2 565.54 124.45 565.54 124.57C565.54 125.23 565.83 125.72 566.41 126.05C566.99 126.38 568 126.73 569.44 127.11L573.34 128.14C575.38 128.67 576.84 129.34 577.73 130.14C578.62 130.94 579.07 131.95 579.07 133.17C579.07 133.36 579.05 133.61 579 133.92C578.95 134.23 578.91 134.47 578.88 134.63C578.35 137.11 577.02 139.08 574.88 140.55C572.74 142.02 570.26 142.76 567.41 142.76C563.99 142.76 561.55 142.05 560.08 140.64C558.98 139.58 558.44 138.13 558.44 136.32C558.44 135.82 558.47 135.38 558.53 135C558.59 134.62 558.64 134.34 558.67 134.15H562.67C562.61 134.65 562.58 135.04 562.58 135.33C562.58 136.43 562.91 137.29 563.57 137.91C564.48 138.76 566.01 139.18 568.15 139.18C569.82 139.18 571.2 138.88 572.3 138.29C573.59 137.6 574.38 136.6 574.66 135.28C574.72 134.97 574.75 134.73 574.75 134.57C574.75 133.47 573.33 132.53 570.51 131.75L565.93 130.58C564.45 130.17 563.32 129.61 562.53 128.89C561.74 128.17 561.35 127.18 561.35 125.93C561.35 125.52 561.4 125.08 561.49 124.61C562.02 122.07 563.39 120.1 565.58 118.69C567.58 117.41 569.87 116.76 572.44 116.76C575.48 116.76 577.66 117.53 578.97 119.06C579.88 120.13 580.33 121.47 580.33 123.1C580.33 123.38 580.31 123.63 580.28 123.85C580.25 124.07 580.22 124.27 580.19 124.46L580.2 124.48Z" fill="#1A1818"></path>
    <path d="M591.5 117.48L586.26 142.06H582.13L587.37 117.48H591.5ZM588.27 113L589.32 108.3H593.44L592.41 113H588.27Z" fill="#1A1818"></path>
    <path d="M616.06 125.32L612.49 142.05H608.31L611.54 126.91C611.8 125.75 611.92 124.81 611.92 124.09C611.92 122.84 611.6 121.92 610.96 121.34C610.32 120.76 609.23 120.47 607.7 120.47C606.07 120.47 604.59 120.99 603.24 122.02C601.36 123.46 600.11 125.67 599.49 128.65L596.6 142.04H592.47L597.69 117.46H601.59L600.84 120.94C601.9 119.84 602.94 118.98 603.94 118.35C605.66 117.29 607.43 116.75 609.25 116.75C611.25 116.75 612.85 117.14 614.04 117.92C615.58 118.92 616.34 120.55 616.34 122.81C616.34 123.53 616.25 124.36 616.06 125.3V125.32Z" fill="#1A1818"></path>
    <path d="M641.53 125.74H637.44C637.44 124.02 637.08 122.71 636.36 121.82C635.64 120.93 634.43 120.48 632.74 120.48C630.36 120.48 628.37 121.47 626.77 123.44C625.45 125.07 624.53 127.17 624 129.74C623.69 131.09 623.53 132.36 623.53 133.55C623.53 135.27 623.87 136.59 624.56 137.5C625.41 138.63 626.78 139.19 628.7 139.19C630.14 139.19 631.5 138.68 632.77 137.66C634.04 136.64 635.05 135.21 635.8 133.36H639.79C639.01 135.84 637.77 137.89 636.08 139.52C633.82 141.68 631.07 142.76 627.81 142.76C624.99 142.76 622.83 141.96 621.32 140.36C619.82 138.76 619.06 136.62 619.06 133.92C619.06 133.01 619.08 132.38 619.13 132.04C619.18 131.7 619.28 131.16 619.44 130.44C620.29 126.43 621.92 123.2 624.33 120.76C626.96 118.1 630.22 116.76 634.11 116.76C636.68 116.76 638.61 117.51 639.89 119.02C640.99 120.31 641.54 122 641.54 124.1V125.75L641.53 125.74Z" fill="#1A1818"></path>
    <path d="M660.47 134.35H664.61C664.33 135.23 663.76 136.23 662.92 137.36C661.73 138.93 660.35 140.16 658.78 141.07C657.9 141.57 657.07 141.95 656.29 142.2C655.04 142.58 653.53 142.76 651.78 142.76C648.96 142.76 646.8 141.96 645.29 140.36C643.79 138.76 643.03 136.62 643.03 133.92C643.03 133.01 643.05 132.38 643.1 132.04C643.15 131.7 643.25 131.16 643.4 130.44C644.25 126.43 645.87 123.2 648.29 120.76C650.92 118.1 654.18 116.76 658.07 116.76C660.8 116.76 662.84 117.55 664.2 119.13C665.56 120.71 666.24 122.96 666.24 125.87C666.24 127.31 666.04 129.05 665.63 131.09H647.68C647.46 132 647.35 132.91 647.35 133.82C647.35 137.39 649.26 139.18 653.08 139.18C654.83 139.18 656.48 138.6 658.01 137.44C659.33 136.44 660.14 135.4 660.45 134.34L660.47 134.35ZM648.35 127.81H662.03C662.06 127.47 662.1 127.14 662.15 126.82C662.2 126.5 662.22 126.16 662.22 125.79C662.22 124.16 661.83 122.91 661.04 122.03C660.13 121 658.71 120.48 656.76 120.48C654.81 120.48 653.12 121.21 651.47 122.67C649.83 124.13 648.78 125.84 648.35 127.82V127.81Z" fill="#1A1818"></path>
    <path d="M688.96 120.86H684.82C685.82 116.16 687.99 112.84 691.31 110.9C693.44 109.65 695.92 109.02 698.74 109.02C701.28 109.02 703.33 109.69 704.9 111.04C706.47 112.39 707.25 114.24 707.25 116.59C707.25 116.93 707.23 117.31 707.2 117.72C707.17 118.13 707.11 118.52 707.01 118.89C706.45 121.59 705.11 123.84 703.01 125.66C701.57 126.91 699.17 128.34 695.82 129.94L691.97 131.82C689.75 132.92 688.01 134.12 686.75 135.44C685.84 136.38 685.25 137.29 684.96 138.17H702.91L702.06 142.07H679.45C680.23 138.87 681.58 136.16 683.49 133.94C685.15 132.03 687.31 130.37 689.98 128.96L694.91 126.42C697.95 124.85 699.91 123.56 700.79 122.54C701.67 121.52 702.28 120.25 702.62 118.71C702.71 118.27 702.76 117.83 702.76 117.39C702.76 116.07 702.37 115.01 701.58 114.19C700.64 113.22 699.23 112.73 697.35 112.73C695.25 112.73 693.51 113.37 692.13 114.66C690.75 115.95 689.69 118.01 688.93 120.86H688.96Z" fill="#1A1818"></path>
    <path d="M732.2 125.98C731.6 128.74 730.81 131.21 729.8 133.41C728.48 136.29 726.9 138.52 725.05 140.08C722.83 141.99 720.22 142.95 717.25 142.95C714.28 142.95 711.94 141.9 710.53 139.8C709.37 138.05 708.79 135.63 708.79 132.56C708.79 131.34 708.84 130.27 708.95 129.36C709.06 128.45 709.26 127.32 709.54 125.98C710.1 123.25 710.9 120.78 711.94 118.55C713.26 115.67 714.82 113.44 716.64 111.88C718.86 109.97 721.46 109.01 724.44 109.01C727.42 109.01 729.8 110.08 731.21 112.21C732.37 113.96 732.95 116.38 732.95 119.45C732.95 120.64 732.9 121.69 732.79 122.6C732.68 123.51 732.48 124.64 732.2 125.98ZM727.82 125.98C728.36 123.47 728.62 121.33 728.62 119.54C728.62 117.35 728.22 115.66 727.41 114.49C726.61 113.32 725.37 112.73 723.7 112.73C721.37 112.73 719.37 113.89 717.72 116.21C716.07 118.53 714.8 121.79 713.91 125.99C713.37 128.5 713.11 130.66 713.11 132.48C713.11 134.67 713.51 136.35 714.32 137.51C715.12 138.67 716.36 139.25 718.03 139.25C720.36 139.25 722.35 138.1 723.99 135.8C725.63 133.5 726.91 130.23 727.82 126V125.98Z" fill="#1A1818"></path>
    <path d="M758.33 125.98C757.73 128.74 756.93 131.21 755.93 133.41C754.61 136.29 753.03 138.52 751.18 140.08C748.96 141.99 746.35 142.95 743.38 142.95C740.41 142.95 738.07 141.9 736.66 139.8C735.5 138.05 734.92 135.63 734.92 132.56C734.92 131.34 734.97 130.27 735.08 129.36C735.19 128.45 735.39 127.32 735.67 125.98C736.23 123.25 737.03 120.78 738.07 118.55C739.39 115.67 740.95 113.44 742.77 111.88C744.99 109.97 747.6 109.01 750.57 109.01C753.54 109.01 755.93 110.08 757.34 112.21C758.5 113.96 759.08 116.38 759.08 119.45C759.08 120.64 759.02 121.69 758.91 122.6C758.8 123.51 758.6 124.64 758.32 125.98H758.33ZM753.95 125.98C754.49 123.47 754.75 121.33 754.75 119.54C754.75 117.35 754.35 115.66 753.54 114.49C752.73 113.32 751.5 112.73 749.83 112.73C747.5 112.73 745.5 113.89 743.85 116.21C742.2 118.53 740.93 121.79 740.04 125.99C739.5 128.5 739.24 130.66 739.24 132.48C739.24 134.67 739.64 136.35 740.45 137.51C741.25 138.67 742.49 139.25 744.16 139.25C746.49 139.25 748.48 138.1 750.12 135.8C751.76 133.5 753.04 130.23 753.95 126V125.98Z" fill="#1A1818"></path>
    <path d="M770.98 113.76L767.63 122.83C768.6 122.17 769.57 121.69 770.55 121.37C771.74 120.96 773.04 120.76 774.45 120.76C776.96 120.76 779.03 121.45 780.66 122.83C782.45 124.33 783.34 126.37 783.34 128.94C783.34 129.69 783.25 130.49 783.06 131.34C782.5 134.07 781.29 136.45 779.44 138.48C776.74 141.46 773.14 142.94 768.63 142.94C766.15 142.94 764.18 142.44 762.71 141.44C760.77 140.12 759.8 138.06 759.8 135.24V133.83H764.17C764.14 134.02 764.12 134.27 764.12 134.58C764.12 136.18 764.64 137.38 765.69 138.17C766.74 138.97 768.17 139.37 769.99 139.37C772.06 139.37 773.89 138.64 775.49 137.18C777.09 135.72 778.11 133.93 778.54 131.8C778.7 131.02 778.78 130.37 778.78 129.87C778.78 128.15 778.23 126.82 777.13 125.87C776.03 124.92 774.58 124.46 772.76 124.46C770.29 124.46 768.03 125.51 765.99 127.61L762.46 127.42L768.71 109.7H785.82L784.97 113.74H770.97L770.98 113.76Z" fill="#1A1818"></path>
  </g>
  <defs>
    <clipPath id="clip0_91_536">
      <rect width="817.42" height="147.04" fill="white"></rect>
    </clipPath>
  </defs>
</svg>
