<svg xmlns="http://www.w3.org/2000/svg" width="186.563" height="170.697" viewBox="0 0 186.563 170.697">
  <g id="Group_103" data-name="Group 103" transform="translate(0.63 -0.569)">
    <g id="Group_104" data-name="Group 104">
      <path id="Path_140" data-name="Path 140" d="M306.453,355.169c1.178,1.678,1.876,2.531,2.422,3.472C314.584,368.5,320.216,378.4,326,388.209a5.506,5.506,0,0,1,.3,5.969,40.793,40.793,0,0,0-3.716,10.08l9.508-6.531c.2,1.885.391,2.839.393,3.794.02,11.744-.034,23.489.055,35.232a4.665,4.665,0,0,1-2.391,4.455,54.863,54.863,0,0,0-8.779,7.061l11.956-.866c-.856,1.82-1.282,2.928-1.869,3.944-5.755,9.962-11.6,19.87-17.254,29.891a5.048,5.048,0,0,1-4.567,2.864,49.358,49.358,0,0,0-10.789,1.73l9.382,4.56-10.366,11.3c-9.378-28.311-27.7-45.985-57.817-45.979-30.028.006-48.333,17.567-57.769,45.908l-10.479-11.2,9.555-4.583-.025-.682c-3.523-.359-7.039-.872-10.57-1.024a5.513,5.513,0,0,1-5.082-3.216C159.97,470.8,154.1,460.772,148.3,450.706c-.439-.763-.755-1.6-1.532-3.263l11.795.79.437-.508a79.228,79.228,0,0,0-6.872-4.88c-3.553-2.021-4.781-4.707-4.652-8.862.327-10.48.112-20.977.114-31.467v-4.8l9.9,6.43.593-.34c-1.514-3.453-3.154-6.858-4.469-10.385a5.421,5.421,0,0,1,.008-4.016c5.916-10.523,12-20.95,18.066-31.388a27.259,27.259,0,0,1,2.08-2.606l5,10.353.77-.12c.356-3.67.582-7.36,1.138-11,.2-1.3.87-3.02,1.878-3.617,10.874-6.443,21.858-12.7,32.819-19a10.525,10.525,0,0,1,1.761-.457c-.254,4.049-.493,7.852-.8,12.688,2.763-3.79,4.789-6.922,7.2-9.716a6.87,6.87,0,0,1,4.347-2.375c8.2-.226,16.416-.194,24.62-.008a5.9,5.9,0,0,1,3.86,2.024c2.446,2.94,4.559,6.156,7.353,9.04-.252-3.778-.5-7.555-.816-12.234,6.694,3.816,12.413,7.053,18.11,10.329,5.232,3.008,10.4,6.137,15.683,9.045a4.969,4.969,0,0,1,2.865,4.579,44.188,44.188,0,0,0,1.8,10.761l5.082-10.535" transform="translate(-147.396 -330.422)"/>
      <path id="Path_141" data-name="Path 141" d="M275.975,422.851l-1.4-.825c.515-3.739.523-7.64,1.656-11.181,1.934-6.04,4.808-7.57,10.991-7.167,5.343.348,10.689.677,16.038.909,4.269.186,5.067-1.11,3.328-5.123-1.674-3.865-3.443-7.692-4.995-11.605a6.11,6.11,0,0,0-4.527-4.08q-9.4-2.483-18.669-5.469c-2.838-.916-4.315-.254-5.673,2.441-3.174,6.3-6.58,12.488-10.129,18.585-2.071,3.56-3.438,3.558-5.509-.009-3.6-6.2-7.013-12.512-10.3-18.884-1.23-2.387-2.591-3.029-5.16-2.226-6.513,2.039-13.134,3.739-19.622,5.848a6.81,6.81,0,0,0-3.523,3.179c-2,3.957-3.633,8.1-5.383,12.177s-.854,5.382,3.675,5.161c5.916-.289,11.824-.914,17.74-.964a9.03,9.03,0,0,1,5.679,2.123c4.837,4.432,4.377,10.475,3.945,16.75-2.117-1.464-3.528-3.523-5.321-5.164-1.05-.961-2.793-1.9-4.082-1.737a19.535,19.535,0,0,1-16.118-4.7c-2.372-2.044-3.968-1.36-5.173,1.648-1.226,3.062-2.161,6.248-3.5,9.254-1.093,2.447-.51,4,1.584,5.5,5.368,3.851,10.573,7.931,15.977,11.729,2.2,1.547,2.891,3.14,2.1,5.756-1.751,5.768-3.259,11.609-4.879,17.417-1.39,4.981.519,7.749,5.827,8.054,8.817.508,16.908-2.022,24.4-6.473a6.563,6.563,0,0,0,.942-10.251c-3.849-3.556-7.9-6.89-11.706-10.493a4.284,4.284,0,0,1-1.165-3.4c.133-.632,1.974-1.267,3.054-1.278q13.645-.151,27.291.007c1.174.015,2.337.907,3.5,1.393-.489,1.154-.684,2.617-1.518,3.41-3.546,3.377-7.321,6.512-10.937,9.819-3.907,3.573-3.376,8.869,1.351,11.495,2.962,1.645,6.137,3.325,9.409,3.9a70.456,70.456,0,0,0,15.534,1.078c4.6-.228,5.648-2.377,4.476-6.618-1.545-5.592-2.844-11.27-4.741-16.741-1.22-3.521-.641-5.587,2.515-7.683,5.307-3.524,10.267-7.57,15.423-11.329,1.833-1.336,2.375-2.776,1.44-4.962-1.3-3.029-2.284-6.189-3.484-9.261-1.33-3.4-2.8-3.986-5.58-1.74a19.2,19.2,0,0,1-15.183,4.534c-1.651-.2-3.766,1.063-5.228,2.214-1.707,1.343-2.932,3.3-4.365,4.988" transform="translate(-167.169 -345.227)" fill="#ffbf00"/>
      <path id="Path_142" data-name="Path 142" d="M300.466,363.719l.181-.7c-5.838-2.507-11.6-5.212-17.569-7.366-1.336-.483-3.786.51-4.993,1.62-2.324,2.136-4.116,4.848-6.148,7.3-2.9,3.508-3.7,3.52-6.519.1-2.171-2.639-4.36-5.264-6.469-7.952-1.69-2.154-3.64-2.5-6-1.217-2.5,1.36-5.026,2.674-7.545,4q-4.077,2.14-8.164,4.261l.383.826c4.436-1.323,8.93-2.481,13.288-4.024,3.357-1.189,5.292-.211,6.9,2.838,2.7,5.137,5.67,10.134,8.561,15.169,1.883,3.279,2.652,3.293,4.488.08,2.995-5.238,5.977-10.483,8.9-15.759,1.4-2.526,3.211-3.517,6.182-2.691,4.8,1.334,9.681,2.359,14.528,3.515" transform="translate(-175.957 -337.925)" fill="#ffbf00"/>
      <path id="Path_143" data-name="Path 143" d="M357.443,420.315l-.623.227c1.44,6.386,2.821,12.786,4.348,19.151a5.631,5.631,0,0,1-2.132,6.32c-4.46,3.537-8.821,7.2-13.317,10.689a6.227,6.227,0,0,0-2.42,7.187c1.635,6.392,3.075,12.833,4.625,19.247.417,1.729.937,3.432,1.411,5.147a204.192,204.192,0,0,0,.556-21.321,8.753,8.753,0,0,1,3.514-7.688c3.225-2.524,6.267-5.281,9.448-7.862,7.6-6.167,6.263-5.582,2.957-12.864-2.764-6.089-5.576-12.156-8.366-18.233" transform="translate(-209.347 -358.621)" fill="#ffbf00"/>
      <path id="Path_144" data-name="Path 144" d="M195.134,421.735l-.866-.129c-3.31,7.219-6.643,14.428-9.916,21.665-1.022,2.26-.434,4.152,1.519,5.739,3.8,3.087,7.373,6.472,11.327,9.337,3.915,2.836,5.378,6.3,5.112,11.093-.343,6.176-.083,12.384-.083,18.579a1.853,1.853,0,0,0,1.167-1.4c1.915-7.838,3.995-15.643,5.584-23.547a6.758,6.758,0,0,0-2.014-5.249,156.934,156.934,0,0,0-12.95-10.579c-3.021-2.238-3.71-4.781-2.8-8.307,1.47-5.691,2.628-11.462,3.919-17.2" transform="translate(-159.105 -359.029)" fill="#ffbf00"/>
    </g>
  </g>
</svg>
