<svg width="56" height="56" viewBox="0 0 56 56" fill="none" xmlns="http://www.w3.org/2000/svg">
<mask id="mask0_135_1587" style="mask-type:alpha" maskUnits="userSpaceOnUse" x="0" y="0" width="56" height="56">
<rect x="0.919922" y="0.900391" width="54.2652" height="54.689" fill="#D9D9D9"/>
</mask>
<g mask="url(#mask0_135_1587)">
<path d="M36.9498 40.0949C34.3025 39.9753 32.4695 39.0838 30.5836 38.3452C25.6372 36.4108 22.1908 32.7525 19.206 28.5462C17.8271 26.6043 16.4739 24.6487 15.8942 22.2845C15.1465 19.2346 15.8307 16.5737 18.0677 14.3427C19.0274 13.3846 20.9481 13.0092 22.1665 13.595C22.445 13.7282 22.6918 14.0687 22.8083 14.3699C23.5348 16.2619 24.2659 18.1554 24.8865 20.0822C25.0212 20.5045 24.838 21.1463 24.5853 21.5519C24.1493 22.2466 23.5606 22.8506 23.0066 23.4666C22.5722 23.9494 22.5419 24.402 22.8416 24.9862C24.5338 28.2919 27.1372 30.6743 30.3278 32.477C30.6532 32.6601 30.9847 32.8327 31.3162 33.0067C32.6179 33.6909 32.7526 33.6742 33.7712 32.5693C34.3857 31.9003 34.9715 31.2026 35.5724 30.5214C35.9765 30.0628 36.4397 29.9463 37.0027 30.2414C38.8448 31.2101 40.6898 32.1712 42.541 33.1233C42.9875 33.3534 43.1146 33.6954 43.0874 34.1707C42.9572 36.3503 42.1838 38.1514 40.0541 39.046C38.8902 39.5364 37.6566 39.8603 36.9498 40.0949Z" fill="#FFBF00"/>
<path d="M28.4352 0.899414C13.6626 0.899414 1.68555 12.8749 1.68555 27.6491C1.68555 33.9289 3.85149 39.7033 7.47502 44.2667C8.0744 42.959 8.70405 41.6649 9.18386 40.3057C9.23532 40.1604 9.33976 40.0786 9.45782 40.0438C7.12538 36.4824 5.76921 32.2246 5.76921 27.6491C5.76921 15.1302 15.9163 4.98307 28.4352 4.98307C40.9526 4.98307 51.1012 15.1302 51.1012 27.6491C51.1012 40.1664 40.9526 50.315 28.4352 50.315C24.35 50.315 20.5161 49.2328 17.2059 47.3408C17.1998 47.4544 17.1378 47.5633 16.9955 47.6284C15.6393 48.2566 14.2589 48.8317 12.8785 49.4084C17.2619 52.5476 22.6321 54.3987 28.4352 54.3987C43.2078 54.3987 55.1848 42.4217 55.1848 27.6491C55.1848 12.8749 43.2078 0.899414 28.4352 0.899414Z" fill="#FFBF00"/>
<path d="M0.919922 55.5887L6.25683 38.9453L9.20379 39.8868C9.4505 39.9655 9.58824 40.2304 9.51105 40.4786L6.48387 50.2261L16.802 47.3079C17.1365 47.214 17.4816 47.4199 17.5543 47.7589L18.137 50.441L0.919922 55.5887Z" fill="#FFBF00"/>
</g>
</svg>
