<svg xmlns="http://www.w3.org/2000/svg" width="32" height="32" viewBox="0 0 32 32"><g id="youtube-svgrepo-com" transform="translate(143 -145)"><path id="Path_233" data-name="Path 233" d="M-127,145a16,16,0,0,0-16,16,16,16,0,0,0,16,16,16,16,0,0,0,16-16A16,16,0,0,0-127,145Zm9.988,25.981a13.972,13.972,0,0,1-4.488,3.025,13.991,13.991,0,0,1-5.5,1.106,14.148,14.148,0,0,1-5.5-1.106,14.107,14.107,0,0,1-4.488-3.025,13.971,13.971,0,0,1-3.025-4.488A13.989,13.989,0,0,1-141.125,161a14.148,14.148,0,0,1,1.106-5.5,14.106,14.106,0,0,1,3.025-4.487,14.187,14.187,0,0,1,4.494-3.031,14.149,14.149,0,0,1,5.5-1.106,14.149,14.149,0,0,1,5.5,1.106,14.106,14.106,0,0,1,4.488,3.025,13.971,13.971,0,0,1,3.025,4.487,13.991,13.991,0,0,1,1.106,5.5,14.149,14.149,0,0,1-1.106,5.5A14.106,14.106,0,0,1-117.012,170.981Z" fill="#ffbf00"></path><path id="Path_234" data-name="Path 234" d="M-1.756,311.2H-12.244A2.7,2.7,0,0,0-15,313.956v5.719a2.7,2.7,0,0,0,2.756,2.756H-1.756A2.7,2.7,0,0,0,1,319.675v-5.719A2.7,2.7,0,0,0-1.756,311.2Zm-7.375,8.694v-6.156l5.238,3.081Z" transform="translate(-120 -155.813)" fill="#ffbf00"></path></g></svg>